<?xml version="1.0" encoding="UTF-8" standalone="no"?>
<!-- Created with Inkscape (http://www.inkscape.org/) -->

<svg
   width="210mm"
   height="297mm"
   viewBox="0 0 210 297"
   version="1.1"
   id="svg5"
   xmlns="http://www.w3.org/2000/svg"
   xmlns:svg="http://www.w3.org/2000/svg">
  <defs
     id="defs2">
    <style
       type="text/css"
       id="style826">*{stroke-linecap:butt;stroke-linejoin:round;}</style>
    <clipPath
       id="p7f94d9048a">
      <rect
         height="324"
         width="324"
         x="54"
         y="10.8"
         id="rect899" />
    </clipPath>
    <style
       type="text/css"
       id="style1224">*{stroke-linecap:butt;stroke-linejoin:round;}</style>
    <clipPath
       id="p7f94d9048a-3">
      <rect
         height="324"
         width="324"
         x="54"
         y="10.8"
         id="rect1297" />
    </clipPath>
    <style
       type="text/css"
       id="style1435">*{stroke-linecap:butt;stroke-linejoin:round;}</style>
    <clipPath
       id="p97c0e64012">
      <rect
         height="324"
         width="324"
         x="54"
         y="10.8"
         id="rect1504" />
    </clipPath>
  </defs>
  <g
     id="layer1">
    <g
       id="axes_1"
       transform="matrix(0.35277778,0,0,0.35277778,32.586513,48.182077)">
      <g
         id="LineCollection_1" />
      <g
         id="LineCollection_2">
        <path
           clip-path="url(#p97c0e64012)"
           d="m 224.64,285.68797 -3.24,-0.39732 -3.24,-0.60525 -2.7,-0.70755 -2.81792,-1.01785 -2.10656,-1.08 -1.43068,-1.08 -0.84575,-1.08 -0.21366,-0.54 -0.075,-0.54 0.0651,-0.54 0.40447,-0.8467 0.54,-0.66031 0.73632,-0.65299 1.67358,-1.08 2.9901,-1.44594 3.04799,-1.25406 15.85201,-6.03104 6.2012,-2.60896 5.1388,-2.33168 6.48,-3.17822 7.02,-3.70668 17.28,-9.22231 3.24,-1.36805 2.7,-0.89681 2.16,-0.48896 1.62,-0.18365 1.62,0.0263 1.51958,0.29004 0.64042,0.23345 1.08,0.60661 0.84986,0.77994 0.40532,0.54 0.53894,1.08 0.29557,1.08 0.12108,1.08 -0.0621,1.62 -0.29548,1.62 -0.48156,1.62 -0.89193,2.16 -1.14996,2.16 -1.48976,2.30722 -1.95088,2.55278 -1.90079,2.16 -2.62833,2.61834 -2.5529,2.24166 -2.8471,2.22685 -3.24,2.2483 -3.25429,2.00485 -4.00226,2.16 -4.08345,1.90113 -3.78,1.51683 -4.2301,1.44204 -3.8699,1.09393 -4.32,0.97788 -3.78,0.6535 -4.32512,0.51469 -4.31488,0.25863 -3.78,0.0146 -3.78,-0.1988 -0.54,-0.0464 v 0"
           style="fill:none;stroke:#d7c4b9;stroke-width:2"
           id="path1443" />
        <path
           clip-path="url(#p97c0e64012)"
           d="M 282.96,103.17535 280.70798,102.6 278.1,101.6779 274.86,100.26669 270.54,98.097906 263.93803,94.5 254.88,89.556037 248.4,86.234249 241.90321,83.16 236.52,80.804567 229.5,77.978426 213.84,71.948174 211.68,70.891394 210.48771,70.2 208.98,69.007009 208.24184,68.04 l -0.20631,-0.54 -0.0651,-0.54 0.075,-0.54 0.39457,-0.81828 0.54,-0.666165 0.76374,-0.675555 1.75135,-1.08 2.34491,-1.014863 2.16,-0.701349 3.24,-0.776054 3.24,-0.531105 3.24,-0.332894 3.78,-0.16762 3.78,0.04395 4.32,0.292076 4.32,0.544759 4.32,0.793757 3.78,0.897248 4.32,1.267896 3.78,1.327417 4.32,1.790945 3.78,1.822021 3.24,1.772146 3.78,2.352905 3.24,2.296179 2.94897,2.362589 2.45103,2.210485 2.58531,2.649515 1.84372,2.16 1.61489,2.16 1.51608,2.386009 1.08,2.064747 0.83165,2.029244 0.48156,1.62 0.30679,1.743976 0.0508,1.496024 -0.12108,1.08 -0.29557,1.08 -0.53894,1.079997 -0.71518,0.86744 -0.54,0.4525 -1.08,0.60661 -1.08,0.35035 -1.62,0.20968 -1.62,-0.0514 -1.62,-0.23987 v 0"
           style="fill:none;stroke:#d7c4b9;stroke-width:2"
           id="path1445" />
      </g>
      <g
         id="LineCollection_3">
        <path
           clip-path="url(#p97c0e64012)"
           d="m 216.54,293.2438 -4.32,-0.45501 -4.32,-0.65582 -4.86,-0.99528 -3.78,-0.97274 -4.10249,-1.26495 -4.37101,-1.62 -3.9465,-1.74041 -3.24,-1.66221 -2.7,-1.58518 -2.7,-1.8289 -1.65744,-1.2833 -2.12256,-1.95899 -1.12882,-1.28101 -0.75228,-1.08 -0.54266,-1.08 -0.27624,-1.14878 v -0.49768 l 0.10504,-0.51354 0.43496,-0.76759 0.54,-0.52118 1.08,-0.62256 1.08,-0.39471 2.16,-0.48831 3.24,-0.40127 4.32,-0.2964 13.5,-0.84784 5.94,-0.61799 5.4,-0.7621 5.4,-0.97684 5.4,-1.20703 5.4,-1.4506 4.86,-1.5241 4.86,-1.73541 5.4,-2.1862 5.4365,-2.47987 4.8235,-2.42618 5.94,-3.27172 7.02,-4.20086 13.5,-8.26956 3.78,-1.99605 2.7,-1.21399 2.7,-0.97751 2.16,-0.57391 2.16,-0.35724 2.16,-0.10246 2.00284,0.16948 1.23716,0.25646 1.62,0.54889 1.54798,0.81465 1.15202,0.87038 1.08,1.12462 0.85159,1.245 0.53309,1.08 0.53406,1.62 0.28774,1.62 0.0881,1.62 -0.13454,2.17605 -0.37595,2.14395 -0.70405,2.52079 -0.87939,2.33921 -1.28061,2.7344 -1.62,2.86384 -1.6379,2.50176 -2.1421,2.87121 -2.16,2.57407 -2.7,2.87507 -2.7,2.58255 -3.24,2.7865 -3.24457,2.5106 -3.8989,2.7 -3.65653,2.26248 -3.78,2.09759 -4.32,2.12599 -4.32,1.86086 -4.32,1.6196 -4.32,1.39382 -4.86,1.30826 -4.32,0.94641 -4.86,0.82684 -4.32,0.52934 -4.86,0.3674 -4.86,0.12788 -4.86,-0.11332 -3.24,-0.20935 v 0"
           style="fill:none;stroke:#cb9d82;stroke-width:2"
           id="path1448" />
        <path
           clip-path="url(#p97c0e64012)"
           d="m 290.52,114.48106 -2.16,-0.41506 -2.286,-0.666 -2.7893,-1.08 -3.0247,-1.43543 -3.78,-2.07353 L 271.55611,105.84 258.12,97.583585 252.18,94.258745 246.24,91.242219 241.38,89.014871 236.33547,86.94 231.66,85.225538 226.8,83.656395 221.94,82.292736 216.46,81 211.68,80.064619 205.74,79.144278 199.8,78.465416 192.78,77.917899 178.2,76.934041 176.04,76.565077 174.42,76.114496 173.27973,75.6 172.53698,75.06 172.08158,74.52 171.82504,73.98 171.72,72.968778 171.81993,72.36 172.26,71.240166 172.89107,70.2 l 1.33103,-1.62 1.8179,-1.730645 2.16,-1.712655 2.16,-1.486638 3.24,-1.927438 2.7,-1.400712 3.78,-1.708249 3.78,-1.462062 4.32,-1.405687 3.78,-1.023228 4.32,-0.952711 4.32,-0.736502 4.32,-0.529204 4.32,-0.329905 4.86,-0.140199 4.86,0.101253 4.86,0.340263 4.86,0.582471 4.86,0.826843 4.32,0.946407 4.32,1.150782 4.32,1.364508 4.32,1.590203 4.32,1.831863 3.89295,1.871242 4.20705,2.283645 3.78,2.307122 3.57062,2.429233 3.55688,2.7 3.18845,2.7 3.18405,3.019654 2.7,2.875065 2.29609,2.745281 2.02391,2.725907 1.74165,2.674093 1.51635,2.7 1.26261,2.7 0.99686,2.7 0.58658,2.16 0.37812,2.16 0.13237,2.16 -0.13454,1.97828 -0.24126,1.26172 -0.53406,1.62 -0.53309,1.08 -0.85159,1.245 -1.08,1.12462 -1.15202,0.87038 -1.54798,0.81465 -1.62,0.54889 -1.62,0.31195 -1.62,0.11399 -2.16,-0.10246 -0.54,-0.066 v 0"
           style="fill:none;stroke:#cb9d82;stroke-width:2"
           id="path1450" />
      </g>
      <g
         id="LineCollection_4">
        <path
           clip-path="url(#p97c0e64012)"
           d="m 213.84,298.63324 -4.86,-0.4733 -4.86,-0.69212 -4.86,-0.91713 -4.32,-1.01013 L 190.47958,294.3 185.54791,292.68 180.9,290.90065 176.33226,288.9 171.72,286.59935 167.4,284.16689 163.75192,281.88 159.84,279.15666 156.06,276.2149 153.22784,273.78 150.12,270.81795 147.81216,268.38 145.26,265.34884 143.5072,262.98 l -1.4872,-2.32571 -1.08,-2.01798 -0.85134,-2.13631 -0.35627,-1.62 4.7e-4,-1.08 0.12714,-0.56494 0.54,-0.84477 0.54,-0.37888 1.08,-0.32356 1.28097,-0.0479 1.41903,0.14612 2.7,0.5612 4.32,1.22202 14.58,4.26764 5.94,1.39047 4.86,0.9345 5.4,0.80524 4.86,0.5089 4.86,0.30121 4.86,0.0886 4.86,-0.12288 4.86,-0.34327 4.97539,-0.57972 4.74461,-0.76894 4.86,-1.0176 4.86,-1.25195 4.86,-1.49266 4.86,-1.73922 4.86,-1.99154 4.86,-2.24743 4.86,-2.50653 4.86,-2.75747 5.4,-3.33949 6.48,-4.31268 10.89965,-7.35449 3.68035,-2.19585 3.24,-1.65451 2.7,-1.11744 2.7,-0.83806 2.16,-0.4501 2.16,-0.24577 2.16,-0.0307 2.16,0.19218 2.16,0.42892 2.16,0.70334 1.89178,0.88802 1.68508,1.08 1.28314,1.0803 1.08,1.17497 1.08,1.56593 0.77387,1.5788 0.54394,1.62 0.34087,1.62 0.19315,2.16 -0.0512,2.16 -0.25833,2.16 -0.57616,2.7 -0.82434,2.7 -1.04952,2.7 -1.259,2.7 -1.77896,3.24 -2.06284,3.24 -2.35162,3.24 -2.64905,3.24 -2.9652,3.24 -2.76559,2.73046 -3.24,2.90563 -3.24,2.64085 -3.78,2.79275 -3.78,2.52282 -4.32,2.59071 -4.05662,2.17678 -4.51537,2.16 -4.38801,1.85233 -4.32,1.60443 -4.86,1.55938 -4.86,1.31232 -4.86,1.07615 -4.86,0.84831 -4.86,0.62633 -4.86,0.40968 -4.86,0.194 -4.86,-0.0191 -4.86,-0.23188 -0.54,-0.0387 v 0"
           style="fill:none;stroke:#c0745d;stroke-width:2"
           id="path1453" />
        <path
           clip-path="url(#p97c0e64012)"
           d="m 294.84,122.06173 -2.16,-0.24577 -2.16,-0.4501 -2.16,-0.6475 -2.7,-1.06451 -2.85095,-1.39385 -3.08905,-1.76006 -4.01812,-2.55994 -7.12581,-4.86 -7.25078,-4.86 L 255.96,100.87488 251.1,98.089024 246.24,95.556612 241.69438,93.42 237.6,91.686475 232.74,89.86317 227.88,88.288891 222.94091,86.94 218.7,85.973194 l -5.4,-0.974569 -4.86,-0.636596 -4.86,-0.415823 -4.86,-0.194844 -4.86,0.01846 -4.86,0.229547 -4.86,0.440392 -4.86,0.64566 -5.4,0.95262 -5.4,1.187862 -5.94,1.553939 -7.56,2.254589 -6.48,1.937597 -3.24,0.751666 -1.95903,0.236306 h -0.79524 L 141.48,93.795648 140.65299,93.42 l -0.53366,-0.54 -0.26907,-0.54 -0.14913,-1.08 0.15887,-1.293511 0.4095,-1.406489 0.68116,-1.62 1.16478,-2.16 1.77157,-2.7 2.06941,-2.7 2.54358,-2.910185 2.7,-2.75434 2.7,-2.49392 3.24,-2.712001 L 160.61514,65.88 164.7,63.104016 169.02993,60.48 173.34,58.159708 l 4.32,-2.068303 4.86,-2.041512 4.32,-1.579434 4.32,-1.371847 4.86,-1.309442 4.32,-0.962678 4.86,-0.867111 4.86,-0.642481 4.86,-0.42506 4.86,-0.208382 4.86,0.0047 4.86,0.217521 4.86,0.433776 4.86,0.650373 4.86,0.874016 4.86,1.101945 4.86,1.337891 4.94111,1.616344 4.77889,1.822294 4.48996,1.957706 4.38113,2.16 4.08891,2.257547 4.22466,2.602453 3.93335,2.7 3.72199,2.836067 3.24,2.724806 3.31551,3.079127 3.16449,3.273152 2.77407,3.206848 2.62593,3.417525 2.16,3.191245 1.83901,3.11123 1.63382,3.24 1.13497,2.7 0.91686,2.7 0.67832,2.699996 0.35281,2.16 0.15835,2.16 -0.0656,2.16 -0.33659,2.16 -0.47079,1.62 -0.70754,1.62 -1.01009,1.62 -0.89255,1.08 -1.132,1.08 -1.55902,1.14267 -1.88212,1.01733 -1.89788,0.73589 -2.16,0.56026 -2.34478,0.32385 -1.97522,0.0639 -1.08,-0.0422 v 0"
           style="fill:none;stroke:#c0745d;stroke-width:2"
           id="path1455" />
      </g>
      <g
         id="LineCollection_5">
        <path
           clip-path="url(#p97c0e64012)"
           d="m 211.14,302.96406 -4.86,-0.4975 -4.86,-0.70073 -5.4,-1.02107 -5.4,-1.28534 -4.86,-1.38691 -4.86,-1.61719 -4.86,-1.85836 -4.44259,-1.91696 -4.73741,-2.29287 -4.74415,-2.56713 -4.48684,-2.7 -4.26901,-2.8372 -4.24497,-3.1028 -4.03271,-3.24 -3.6875,-3.24 L 137.7,269.15007 134.39052,265.68 131.09253,261.9 127.98,257.98751 124.95676,253.8 122.47847,250.02 119.88,245.63142 117.63341,241.38 115.56,236.94689 113.84292,232.74 112.32,228.3879 111.09121,224.1 l -0.84276,-3.78 -0.42831,-2.7 -0.24314,-2.7 0.043,-2.25647 0.17148,-0.98353 0.43747,-1.08 0.47105,-0.41541 0.54,-0.0823 0.54,0.14527 1.08,0.6644 1.96141,1.84809 1.48378,1.62 3.57481,4.09948 3.0617,3.46052 5.14385,5.4 3.97097,3.78 4.02348,3.48935 3.78439,2.99065 3.77561,2.72497 4.08296,2.67503 4.01704,2.37443 4.32,2.28694 4.32,2.02853 4.32,1.78426 4.86,1.72971 4.86,1.45257 4.86,1.18219 4.86,0.92389 4.86,0.66979 4.86,0.42256 4.86,0.17601 4.86,-0.0659 4.86,-0.31082 4.86,-0.55512 4.86,-0.80141 4.32,-0.92587 4.32,-1.12657 4.32,-1.33333 5.00333,-1.81183 4.17667,-1.733 4.38762,-2.047 4.25238,-2.20493 4.6364,-2.65507 4.5436,-2.84881 5.4,-3.67863 6.60436,-4.81256 8.16797,-5.94 3.58767,-2.33183 2.7,-1.52936 2.7,-1.27773 2.16,-0.81765 2.16,-0.62164 2.2648,-0.44179 2.0552,-0.21921 2.7,-0.0405 2.7,0.22183 2.7,0.47678 2.39667,0.64108 2.46333,0.9065 2.16,1.05683 1.62,1.01505 1.62,1.29166 1.11358,1.12996 1.2278,1.62 0.89966,1.62 0.64281,1.62 0.44031,1.62 0.32803,2.16 0.0882,2.16 -0.11367,2.16 -0.38241,2.7 -0.61692,2.7 -0.92739,2.99523 -1.13861,2.94477 -1.56139,3.36333 -1.68426,3.11667 -2.09574,3.39872 -2.16,3.11673 -2.7,3.48842 -2.7,3.1435 -2.88282,3.05263 -3.3679,3.24 -3.46928,3.0297 -3.78,2.99923 -3.78,2.72412 -3.94896,2.58695 -4.15104,2.46222 -4.32,2.31015 -4.32,2.07211 -4.32,1.85283 -4.86,1.8369 -4.86,1.59177 -4.91757,1.37402 -4.80243,1.11994 -5.4,1.00822 -4.86,0.68588 -5.4,0.52275 -5.4,0.27363 -5.4,0.0276 -5.4,-0.2185 -2.16,-0.15549 v 0"
           style="fill:none;stroke:#ac4c50;stroke-width:2"
           id="path1458" />
        <path
           clip-path="url(#p97c0e64012)"
           d="m 110.7,135.41541 -0.54,-0.50024 -0.36852,-0.99517 -0.18108,-1.08 -0.0334,-2.16 0.17635,-2.16 0.4951,-3.24 0.84276,-3.78 0.90626,-3.24 1.40253,-4.21054 1.62,-4.13491 L 116.84554,105.84 118.8,101.95149 121.16431,97.74 123.66,93.734456 126.47778,89.64 l 2.86077,-3.78 3.13099,-3.78 3.43065,-3.78 3.76661,-3.78 L 143.64,70.894758 147.05222,68.04 151.27982,64.8 155.52,61.848615 159.36927,59.4 164.16,56.639018 l 4.86,-2.503742 4.32,-1.99234 4.86,-1.996358 4.86,-1.748243 4.86,-1.51479 4.86,-1.288779 4.86,-1.072204 4.86,-0.861913 5.4,-0.714658 4.86,-0.430282 5.4,-0.242949 5.4,0.003 5.4,0.249153 4.86,0.436863 4.86,0.64029 4.86,0.848697 4.86,1.062072 4.86,1.282952 4.86,1.512815 4.86,1.753892 4.33148,1.777555 4.84852,2.248009 4.32,2.248918 4.35682,2.523073 4.28318,2.757938 3.78,2.68771 3.78,2.958027 3.41483,2.936325 3.4239,3.24 3.10197,3.24 3.0193,3.496131 2.7,3.488418 2.16,3.11673 1.78046,2.858721 1.78737,3.24 1.54067,3.24 1.28586,3.24 0.86389,2.700001 0.66005,2.7 0.4321,2.7 0.16999,2.7 -0.0882,2.16 -0.33219,2.1782 -0.54,1.90176 -0.54,1.3222 -0.89862,1.61784 -0.77561,1.08 -1.02577,1.15193 -1.62,1.41594 -1.62,1.0961 -1.62,0.87681 -2.16,0.92495 -2.7,0.85247 -2.7,0.57867 -2.7,0.32438 -2.7,0.067 -2.16,-0.14299 -2.16,-0.33008 -2.16,-0.52382 -2.60203,-0.89131 -2.25797,-0.99497 -2.7,-1.43469 -3.24,-2.00808 -3.78,-2.61704 -9.18,-6.76779 -5.94,-4.2063 -5.4,-3.52381 -4.86,-2.88502 L 245.7,98.784728 241.25551,96.66 237.06,94.869384 232.74,93.242817 228.31441,91.8 224.1,90.626467 l -4.32,-0.999032 -4.32,-0.801846 -4.86,-0.664114 -4.86,-0.419145 -4.86,-0.173668 -4.86,0.06806 -4.86,0.31376 -4.86,0.55974 -4.86,0.808617 -4.32,0.936215 -4.32,1.142408 -4.32,1.35792 -4.86,1.795552 -4.32,1.84278 -4.32,2.09178 -4.56094,2.494506 -3.5531,2.16 -4.04015,2.7 -3.67273,2.7 -4.01709,3.24 -3.91599,3.4696 -3.67413,3.5504 -4.60417,4.86 -9.5417,10.57947 -1.08,0.83026 -0.54,0.28275 -0.54,0.14528 -0.54,-0.0823 v 0"
           style="fill:none;stroke:#ac4c50;stroke-width:2"
           id="path1460" />
      </g>
      <g
         id="LineCollection_6">
        <path
           clip-path="url(#p97c0e64012)"
           d="m 208.98,306.72832 -5.4,-0.59522 -5.4,-0.83481 -4.86,-0.9591 -5.4,-1.30238 -4.86,-1.39284 -4.86,-1.6082 -5.16723,-1.95577 -5.09277,-2.18945 -4.86,-2.34625 -4.63638,-2.4843 -4.56603,-2.7 -4.83759,-3.15745 -3.89641,-2.78255 -4.20359,-3.26478 -4.32,-3.66909 -3.78,-3.50047 -3.78,-3.80432 -3.28289,-3.58134 -3.64096,-4.32 -3.33615,-4.32728 -3.24,-4.60519 -2.92864,-4.56753 -2.5311,-4.32 -2.64026,-4.96153 -2.52754,-5.29847 -2.07308,-4.86 -1.87938,-4.92918 -1.788462,-5.33082 -1.572542,-5.4 -1.341694,-5.4 -1.122988,-5.4 -0.911411,-5.4 -0.771446,-5.94 -0.492896,-5.4 -0.300872,-5.4 -0.11365,-5.94 0.11365,-5.94 0.342029,-5.94 0.5753,-5.94 0.812745,-5.94 0.95473,-5.4 1.165122,-5.4 1.236829,-4.86 1.77025,-5.94 1.864626,-5.4 1.90095,-4.86 2.12399,-4.86 2.36295,-4.86 2.37279,-4.42657 2.80309,-4.75343 2.79406,-4.32 3.04821,-4.32 3.33079,-4.32 3.1674,-3.78 3.75645,-4.121337 3.402,-3.438663 4.06088,-3.78 3.87712,-3.314253 4.32,-3.388567 4.32,-3.099729 4.32,-2.833435 4.32,-2.59001 4.86,-2.642446 4.86,-2.373125 4.86,-2.122384 L 177.2601,45.9 182.52,44.123753 187.5551,42.66 l 5.2249,-1.28029 5.4,-1.077995 5.4,-0.834813 5.30719,-0.586902 4.95281,-0.340976 5.4,-0.148564 5.4,0.08655 5.4,0.32094 5.4,0.558635 4.86,0.709485 5.4,1.022343 5.4,1.277491 4.86156,1.3741 4.92358,1.62 4.79486,1.808945 4.86,2.078656 4.86,2.344058 4.47174,2.408341 4.51547,2.7 4.08937,2.7 4.20342,3.057243 3.78,3.023087 3.78,3.321123 3.24,3.120827 3.24,3.421467 3.00533,3.496253 2.5293,3.24 2.65832,3.78 2.35616,3.78 1.87089,3.406089 1.7236,3.613911 1.30994,3.24 1.07683,3.239996 0.82482,3.24 0.47296,2.7 0.24858,2.7 0.0125,2.16 -0.18525,2.16 -0.42814,2.16 -0.51822,1.62 -0.75762,1.66923 -1.08,1.70746 -1.2674,1.48331 -1.4326,1.28142 -1.62,1.1383 -1.62,0.91829 -2.16,0.98924 -3.01574,1.07275 -2.92426,0.79834 -3.24,0.66538 -3.24,0.43663 -2.7,0.1664 -2.7,-0.0524 -2.7,-0.31168 -2.16,-0.46397 -2.24156,-0.69872 -2.07844,-0.84992 -2.57175,-1.31008 -2.28825,-1.37899 -3.24,-2.22686 -4.48029,-3.41415 -12.52783,-9.72 -4.62192,-3.24 -4.28996,-2.76451 -4.50005,-2.63549 -4.13995,-2.18614 -4.32,-2.041846 -4.86,-2.011845 -4.86,-1.717921 -4.86,-1.434932 -4.32,-1.043377 -4.32,-0.829523 -4.86,-0.683623 -4.32,-0.388027 -4.32,-0.182501 -4.32,0.02329 -4.32,0.228822 -4.32,0.439245 -4.32,0.649793 -4.53079,0.918588 -4.10921,1.044792 -4.32,1.326231 -4.32,1.573687 -4.32,1.834193 -4.32,2.113504 -4.23444,2.36759 -3.44503,2.16 -3.66053,2.54981 -3.24,2.5006 -3.56533,3.04959 -2.91467,2.7591 -3.24,3.3906 -2.7,3.13476 -2.7,3.47243 -2.16,3.07445 -2.16,3.40117 -1.67003,2.90749 -1.94428,3.78 -1.92466,4.32 -1.48103,3.90224 -1.1839,3.65776 -1.01496,3.78 -0.81684,3.78 -0.68729,4.32 -0.43779,4.32 -0.18311,4.32 0.0607,4.32 0.25623,3.78 0.53061,4.32 0.78845,4.32 0.89727,3.78 1.28186,4.32 1.34435,3.78 1.86437,4.42813 1.62,3.34653 1.63245,3.02534 2.14755,3.57366 2.16,3.22886 2.16,2.93394 2.7,3.32994 2.81031,3.1336 3.22025,3.24 3.14944,2.8616 3.24,2.66834 3.78,2.80343 3.78,2.50488 3.78,2.23991 3.87486,2.04184 3.68514,1.72463 4.32,1.76811 4.32,1.51034 4.32,1.26848 4.32,1.03665 4.32,0.81183 4.32,0.59796 4.32,0.38579 4.32,0.17797 4.32,-0.0286 4.32,-0.23291 4.32,-0.4403 4.32,-0.64584 4.56675,-0.91407 4.07325,-1.01396 4.86,-1.46469 4.32,-1.54152 4.65026,-1.91983 3.98974,-1.86412 4.67995,-2.45588 3.96005,-2.30434 4.32,-2.75337 4.86,-3.38433 5.4,-4.06915 13.5,-10.41075 2.9762,-1.91806 2.4238,-1.33357 2.16,-0.98234 2.16,-0.77445 2.16,-0.56533 2.16,-0.36512 2.7,-0.20346 2.7,0.0402 3.24,0.31155 3.24,0.5529 3.24,0.77887 2.92527,0.92077 2.65091,1.08 2.06641,1.08 1.63747,1.08 1.51994,1.27486 1.31073,1.42514 1.1141,1.62 0.81613,1.62 0.58373,1.62 0.49769,2.16 0.24044,2.16 0.0338,2.16 -0.20005,2.7 -0.43083,2.7 -0.72573,3.04578 -0.90078,2.89422 -1.25922,3.30133 -1.62,3.55953 -1.79176,3.39914 -1.98824,3.3339 -2.46866,3.6861 -2.41104,3.24 -3.11613,3.78 -2.94843,3.24 -3.22814,3.24 -3.6476,3.33563 -3.78,3.14619 -3.78,2.86943 -3.78,2.62646 -4.32,2.73301 -4.49558,2.56928 -4.68442,2.40396 -4.32,1.99006 -5.09797,2.08598 -4.62203,1.66072 -5.05843,1.57928 -5.20157,1.37592 -4.86,1.06813 -4.86,0.86479 -5.4,0.72677 -5.4,0.48718 -5.4,0.25087 -5.4,0.016 -5.4,-0.21875 -3.24,-0.24254 v 0"
           style="fill:none;stroke:#8d2b50;stroke-width:2"
           id="path1463" />
      </g>
      <g
         id="LineCollection_7">
        <path
           clip-path="url(#p97c0e64012)"
           d="m 212.76,310.51987 -5.4,-0.38895 -5.4,-0.61523 -5.4,-0.846 -5.4,-1.08005 -5.4,-1.31978 -4.86,-1.39992 -4.86,-1.60651 -5.16714,-1.94343 -5.09286,-2.16497 -4.86,-2.31014 -4.86,-2.56005 -4.86,-2.83004 -4.32,-2.7569 -4.37032,-3.0379 -4.2797,-3.24 -4.30998,-3.55396 -3.87345,-3.46604 -3.89775,-3.78 -3.59946,-3.78 -3.78767,-4.32 -3.47668,-4.32 -3.19784,-4.32 -3.00715,-4.41727 -2.96741,-4.76273 -2.75889,-4.86 -2.50618,-4.86 -2.269132,-4.86 -2.047312,-4.86 L 94.5,220.85321 92.722717,215.46 l -1.545992,-5.4 -1.439241,-5.94 -1.079831,-5.4 -0.867779,-5.4 -0.717298,-5.94 -0.438442,-5.4 -0.253087,-5.94 -0.01079,-5.94 0.199978,-5.4 0.448964,-5.94 0.695273,-5.94 0.845909,-5.4 1.177107,-5.94 1.297989,-5.4 1.522488,-5.4 1.756779,-5.4 1.80526,-4.90032 2.219354,-5.35968 2.508162,-5.4 2.50618,-4.86 2.75889,-4.86 2.68056,-4.32 2.98685,-4.426266 3.24,-4.409357 L 118.3108,82.62 122.0576,78.3 125.82,74.313527 129.6,70.617964 133.65748,66.96 137.7,63.601399 142.02,60.297891 146.37362,57.24 151.2,54.1452 l 4.32,-2.528313 4.86,-2.590115 4.86,-2.336139 4.86,-2.097584 5.03083,-1.933049 5.22917,-1.762007 5.4,-1.567858 5.4,-1.319776 5.4,-1.080052 5.4,-0.846 5.4,-0.61523 5.4,-0.388944 5.4,-0.161991 5.4,0.06231 5.4,0.288675 5.4,0.516604 5.4,0.748389 5.4,0.984953 5.4,1.227848 4.86,1.320104 4.86,1.531395 4.86,1.753525 4.91266,2.008053 4.80734,2.210104 4.86,2.497929 4.32,2.459949 4.32,2.705792 4.32,2.975683 3.78,2.849211 3.88984,3.201332 3.67016,3.304314 3.24,3.180638 3.50983,3.775048 3.18458,3.78 2.88008,3.78 2.59415,3.78 2.41136,3.935557 1.96621,3.624443 1.81379,3.828304 1.5024,3.731698 1.1976,3.62506 0.74885,2.85494 0.62081,3.24 0.30787,2.7 0.0834,2.7 -0.14091,2.30297 -0.3199,2.01703 -0.6014,2.16 -0.6987,1.66211 -0.91695,1.57789 -0.81327,1.08 -1.01073,1.08 -1.57905,1.3068 -1.62,1.03396 -2.16,1.06939 -2.7,1.02585 -3.25826,0.964 -4.66676,1.08 -4.49498,0.81293 -3.78,0.49444 -3.24,0.21748 -2.7,-0.031 -2.16,-0.20645 -2.16,-0.40049 -2.16,-0.61957 -2.16,-0.85151 -2.16,-1.08341 -2.7,-1.65222 -2.90413,-2.0802 -3.57587,-2.84671 -14.58,-11.96288 -4.32,-3.14171 -4.32,-2.87419 -4.32,-2.60056 -4.32,-2.33072 -4.32,-2.06881 L 234.74321,99.36 230.58,97.85005 226.26,96.516945 221.94,95.414219 217.40283,94.5 213.3,93.879507 208.98,93.440146 204.66,93.214308 200.34,93.20541 195.95356,93.42 191.7,93.840445 187.33541,94.5 183.06,95.370008 l -4.32,1.117748 -4.32,1.366546 -4.01464,1.505698 -3.74463,1.62 -3.58073,1.7573 -3.78,2.09618 -3.78,2.36371 -3.78,2.66317 -3.24,2.55034 -3.24,2.82976 -3.10927,3.01954 -2.99629,3.24 -2.6905,3.24 -2.80064,3.78 -2.4743,3.78 -2.129,3.67911 -1.71508,3.34089 -1.70532,3.78 -1.46909,3.78 -1.25161,3.78 -1.03837,3.78 -0.83456,3.78 -0.71339,4.32 -0.45258,4.22238 -0.212,3.87762 v 4.32 l 0.24751,4.32 0.41707,3.78 0.71339,4.32 0.83456,3.78 1.23947,4.42636 1.24518,3.67364 1.50466,3.78 1.73788,3.78 1.99344,3.78 2.15884,3.61387 2.16,3.23018 2.16,2.92245 2.7,3.30148 2.8482,3.13202 3.0918,3.05764 2.7,2.42121 3.24,2.63868 3.67395,2.68247 3.34605,2.18721 3.78,2.20817 3.78,1.9533 4.32,1.94589 4.32,1.66279 4.32,1.39655 3.98021,1.06609 4.11979,0.89157 4.49213,0.72843 4.14787,0.46002 4.32,0.26291 4.32,0.0453 4.32,-0.17163 4.32,-0.38491 4.32,-0.60319 4.32,-0.82252 4.32,-1.04619 4.32,-1.27405 4.32,-1.51017 4.32,-1.75283 4.32,-2.00454 4.32,-2.26428 4.32,-2.53316 4.32,-2.80515 4.32,-3.07695 4.86,-3.76161 5.94,-4.92226 7.56,-6.26177 3.24,-2.38767 2.7,-1.71202 2.16,-1.13903 2.16,-0.91105 2.16,-0.67649 2.16,-0.45357 2.16,-0.25191 2.7,-0.0776 3.24,0.17726 3.78,0.46302 4.32,0.75396 4.32,0.95381 3.78,1.05672 2.7,0.97337 2.16,1.0011 1.71306,1.01707 1.52694,1.16615 1.08,1.04571 1.24305,1.56814 0.93818,1.62 0.67747,1.62 0.6014,2.16 0.33614,2.16 0.12467,2.16 -0.0834,2.7 -0.30787,2.7 -0.62081,3.24 -0.86305,3.24 -1.0834,3.24 -1.5234,3.78 -1.79279,3.78 -2.05572,3.78 -2.32185,3.78 -2.59415,3.78 -2.88008,3.78 -3.18458,3.78 -2.99106,3.24 -3.25654,3.24 -3.74223,3.40737 -3.78,3.14642 -4.16708,3.16621 -3.93292,2.7301 -4.32,2.73789 -4.58039,2.63201 -4.59961,2.38529 -4.86,2.2613 -4.86,2.01249 -4.86,1.77816 -4.86,1.55583 -4.87103,1.34693 -5.38897,1.24931 -5.4,1.00909 -5.4,0.77139 -5.4,0.53965 -5.4,0.31152 -5.4,0.0848 -5.4,-0.13963 -0.54,-0.0262 v 0"
           style="fill:none;stroke:#63184b;stroke-width:2"
           id="path1466" />
      </g>
      <g
         id="LineCollection_8">
        <path
           clip-path="url(#p97c0e64012)"
           d="m 212.76,313.74563 -5.4,-0.35875 -5.4,-0.57764 -5.4,-0.79981 -5.4,-1.02561 -5.4,-1.25728 -5.4,-1.49373 -5.4,-1.73965 -5.2456,-1.93316 -5.18783,-2.16 -5.22657,-2.43858 -4.86,-2.51609 -4.86,-2.77276 -4.86,-3.0461 -4.32,-2.95707 -4.32,-3.20915 -4.32,-3.48448 -3.82318,-3.33577 -4.27682,-4.04372 -3.94666,-4.05628 -3.86782,-4.32 -3.56016,-4.32 -3.28095,-4.32 -3.16441,-4.5243 -2.98986,-4.6557 -2.855771,-4.86 -2.602446,-4.86 -2.367487,-4.86 -2.368063,-5.4 -2.110066,-5.4 -1.86415,-5.4 -1.62887,-5.4 -1.402382,-5.4 -1.184101,-5.4 -0.97165,-5.4 -0.829902,-5.94 -0.539731,-5.4 -0.337722,-5.4 -0.142668,-5.94 0.09884,-5.94 0.338273,-5.94 0.583012,-5.94 0.829902,-5.94 0.97165,-5.4 1.184101,-5.4 1.402382,-5.4 1.62887,-5.4 1.86415,-5.4 1.887181,-4.86 2.342965,-5.4 L 97.2,107.29613 99.994369,102.06 102.85014,97.2 105.84,92.544299 l 3.24,-4.627804 3.24,-4.260241 3.78,-4.571856 3.78,-4.202403 3.78,-3.878275 3.78,-3.591221 4.32,-3.788271 4.32,-3.48448 4.32,-3.209152 4.32,-2.95707 4.86,-3.046097 4.32,-2.477437 L 158.77027,45.9 164.16,43.362731 169.02,41.315245 174.06178,39.42 179.28,37.695138 l 5.4,-1.542792 5.4,-1.30293 5.4,-1.071592 5.4,-0.845587 5.4,-0.62151 5.4,-0.40201 5.4,-0.182956 5.4,0.03463 5.4,0.253616 5.4,0.473713 5.4,0.69776 5.4,0.924838 5.4,1.158919 5.4,1.399158 4.86,1.473609 5.22249,1.817998 5.03751,1.99685 4.86,2.165029 4.86,2.414864 4.86,2.683784 4.32,2.629752 4.32,2.882031 4.32,3.158105 3.9161,3.129585 3.72303,3.24 3.70087,3.512887 3.38564,3.507113 3.33557,3.78 3.03905,3.78 2.76267,3.78 2.59707,3.92997 2.16114,3.63003 2.15886,4.074087 1.62824,3.485913 1.61176,3.993898 1.20522,3.5661 1.02055,3.78 0.64444,3.24 0.40532,3.24 0.12346,2.7 -0.11014,2.7 -0.29862,2.16 -0.53822,2.16 -0.61001,1.62 -0.84868,1.62 -1.18502,1.62 -1.05689,1.08 -1.45141,1.13554 -1.75185,1.02446 -2.02815,0.88196 -2.22682,0.73804 -3.17318,0.79706 -4.86,0.95442 -10.26,1.72003 -4.86,0.6332 -3.44876,0.21529 -2.49124,-0.0558 -2.16,-0.24753 -2.16,-0.47115 -2.16,-0.72398 -2.16,-0.98965 -2.23075,-1.29188 -2.62925,-1.82991 -3.24,-2.60039 -4.86,-4.27668 -7.89745,-6.95302 -4.66152,-3.78 -4.36439,-3.24 -4.13664,-2.79048 -4.32,-2.62356 -3.94753,-2.14596 -3.61247,-1.76151 -4.32,-1.85955 -4.32,-1.60177 -4.32,-1.352774 -4.32,-1.113043 -4.32,-0.878225 -4.32,-0.648953 -4.32,-0.423791 -4.32,-0.199317 -4.32,0.02538 -4.32,0.250348 -4.32,0.480108 -4.32,0.712929 -4.32,0.955345 -4.32,1.20574 -4.32,1.470683 -3.78,1.51698 -3.78,1.74419 -3.82235,2.01723 -3.61464,2.16 -3.36301,2.2536 -3.47682,2.6064 -3.22337,2.7 -3.01981,2.81453 -3.01176,3.12547 -2.7938,3.24 -2.50393,3.24 -2.59594,3.78 -2.28486,3.78 -2.00054,3.78 -1.74296,3.78 -1.4994,3.78 -1.27411,3.78 -1.19007,4.32 -0.92083,4.32 -0.59159,3.78 -0.43701,4.32 -0.18685,4.32 0.062,4.32 0.29167,4.09098 0.41988,3.46902 0.75703,4.32 0.87809,3.78 1.26005,4.32 1.33562,3.78 1.56773,3.78 1.8816,3.90697 1.69905,3.11303 2.08095,3.40174 2.16,3.16087 2.39759,3.15739 2.74307,3.24 3.06921,3.24 3.13013,2.95573 3.24,2.74284 3.24,2.462 3.24,2.21506 3.78,2.30351 3.78,2.02898 3.78,1.77978 4.32,1.7505 4.32,1.47068 4.32,1.20574 4.32,0.95535 4.32,0.71292 4.32,0.48011 4.32,0.25035 4.32,0.0254 4.32,-0.19931 4.32,-0.42379 4.32,-0.64896 4.32,-0.87822 4.64842,-1.20865 3.99158,-1.25717 4.32,-1.60177 4.32,-1.85955 4.32,-2.12768 4.32,-2.40796 4.21052,-2.62587 3.92216,-2.7 4.29826,-3.24 4.609,-3.78 5.64006,-4.95724 7.25887,-6.38276 3.00113,-2.34995 2.7,-1.80996 2.27686,-1.24009 2.04314,-0.86713 2.16,-0.65935 2.16,-0.41155 2.16,-0.19745 2.7,-0.003 3.24,0.2501 4.32,0.57727 8.64,1.43332 6.48,1.24112 3.24,0.8168 2.7,0.92904 1.62,0.7391 1.70214,1.01213 1.53786,1.23666 1.08,1.15239 0.99332,1.39095 0.84868,1.62 0.61001,1.62 0.53822,2.16 0.29862,2.16 0.11014,2.7 -0.12346,2.7 -0.40532,3.24 -0.64444,3.24 -0.85836,3.24 -1.24756,3.78 -1.49839,3.78 -1.73969,3.78 -1.97904,3.78 -2.2198,3.78 -2.46668,3.78 -2.72502,3.78 -3.15123,3.96353 -3.24,3.70744 -3.51148,3.66903 -3.50852,3.35901 -3.78,3.3222 -3.78,3.05302 -4.36362,3.22577 -4.27638,2.88312 -4.32,2.66038 -4.86,2.71502 -4.86,2.4441 -4.86,2.19213 -4.86,1.95529 -4.86,1.73235 -4.86,1.51912 -5.4,1.44904 -5.4,1.20596 -5.4,0.97157 -5.4,0.74239 -5.4,0.51833 -5.4,0.2978 -5.4,0.0781 -5.4,-0.13908 v 0"
           style="fill:none;stroke:#3a113a;stroke-width:2"
           id="path1469" />
      </g>
      <g
         id="LineCollection_9">
        <path
           clip-path="url(#p97c0e64012)"
           d="M 207.9,316.45777 202.23889,315.9 197.1,315.18837 l -5.4,-0.96035 -5.4,-1.1841 -5.58326,-1.46392 -5.2907,-1.62 -5.32604,-1.86853 -4.86,-1.91948 -5.4,-2.38744 -5.00997,-2.46455 -4.97264,-2.7 -4.59739,-2.73492 -4.92765,-3.20508 -4.79235,-3.411 -4.32,-3.34441 -4.32,-3.62452 -4.32,-3.93477 -4.09211,-4.0453 -3.54036,-3.78 -3.74592,-4.32 -3.45635,-4.32 -3.19456,-4.32 L 101.52,253.14338 98.539677,248.4 95.743038,243.54 93.189874,238.68 90.72,233.50194 88.533822,228.42 86.4,222.86558 84.618579,217.62 83.011035,212.22 81.54,206.45887 80.349483,200.88 79.326217,194.94 78.551191,189 l -0.532776,-5.94 -0.29354,-5.94 -0.05378,-5.94 0.18417,-5.94 0.422888,-5.94 0.594444,-5.4 0.88817,-5.94 1.023393,-5.4 1.295842,-5.6496 1.546618,-5.6904 1.698089,-5.4 1.933584,-5.4 1.948005,-4.86 2.409021,-5.4 2.399012,-4.86 L 96.66,100.41652 99.528717,95.58 102.67722,90.72 106.11665,85.86 109.62,81.314618 113.03701,77.22 116.93904,72.9 120.96,68.797094 124.74,65.226356 129.06,61.450745 133.62535,57.78 138.24,54.372507 142.76698,51.3 147.42,48.40089 l 4.86,-2.768296 4.86,-2.519913 4.86,-2.284721 4.86,-2.062967 5.40266,-2.044993 5.39734,-1.791618 5.4,-1.552922 5.4,-1.319874 5.4,-1.093964 5.4,-0.87292 5.4,-0.655492 5.4,-0.441297 5.4,-0.228485 5.4,-0.01638 5.4,0.196281 5.4,0.409899 5.4,0.626279 5.4,0.845637 5.4,1.070888 5.4,1.302545 5.4,1.540929 5.4,1.789824 4.86,1.832939 5.04338,2.137733 4.67662,2.208152 5.06104,2.651848 4.65967,2.7 4.85929,3.104541 4.32,3.030332 4.32,3.312748 3.78,3.156914 3.95599,3.595465 3.8044,3.78 3.57961,3.893126 3.24,3.857926 2.76217,3.588948 2.66311,3.78 2.75162,4.32 2.45445,4.32 1.91142,3.78 1.69306,3.78 1.47431,3.779998 1.24862,3.78 1.01303,3.78 0.75728,3.78 0.42154,3.24 0.17776,3.24 -0.0768,2.7 -0.24329,2.16 -0.45077,2.16 -0.51437,1.62 -0.76311,1.70574 -0.96094,1.53426 -0.90477,1.08 -1.18835,1.08 -1.26594,0.86327 -1.62,0.81931 -2.16,0.76024 -2.16,0.52565 -3.24,0.54133 -6.48,0.76869 -7.56,0.98226 -14.04,2.04592 -2.7,0.0588 -2.16,-0.16728 -2.16,-0.41211 -2.16,-0.69614 -2.16,-0.99984 -2.18126,-1.31013 -2.23437,-1.62 -2.60437,-2.16206 -4.11119,-3.77794 -10.48411,-9.72 -4.3047,-3.58984 -3.78257,-2.89016 -3.87121,-2.7 -3.68622,-2.33279 -4.32,-2.4466 -4.32,-2.15216 -4.32,-1.87144 -4.32,-1.60231 -4.32,-1.34442 -4.32,-1.095331 -4.32,-0.853777 -4.32,-0.616502 -4.32,-0.382211 -4.32,-0.151357 -4.32,0.08154 -4.32,0.315849 -4.32,0.553607 -4.32,0.798074 -4.32,1.050978 -4.32,1.31666 -3.78,1.38004 -4.17612,1.79215 -3.38388,1.67008 -3.78,2.11903 -3.39419,2.15089 -3.08581,2.18234 -3.39253,2.67766 -3.08747,2.72715 -2.72666,2.67285 -2.96761,3.24 -2.64572,3.24 -2.46001,3.38035 -2.16,3.33189 -1.74548,3.00776 -1.93851,3.78 -1.71601,3.87666 -1.3969,3.68334 -1.3031,4.12802 -0.88981,3.43198 -0.8721,4.32 -0.54624,3.78 -0.34704,3.78 -0.15939,4.32 0.0701,3.78 0.31631,4.32 0.48931,3.78 0.69047,3.78 1.042,4.32 1.28634,4.20414 1.22401,3.35586 1.60663,3.78 1.86181,3.78 2.13896,3.78 2.44443,3.78 2.60416,3.54805 2.40573,2.93195 2.96761,3.24 2.75575,2.7 3.21091,2.82731 3.27008,2.57269 3.20992,2.26358 3.78,2.36846 3.78,2.07924 4.03428,1.92872 3.52572,1.46293 4.32,1.52476 4.32,1.2477 4.32,0.9875 4.32,0.73492 4.32,0.49379 4.32,0.25807 4.32,0.0232 4.32,-0.20998 4.32,-0.44009 4.35364,-0.68285 4.28636,-0.90553 4.32,-1.15745 4.32,-1.40745 4.32,-1.66845 4.32,-1.94095 4.09203,-2.10017 3.75265,-2.16 3.49532,-2.22209 3.78,-2.63978 3.78,-2.88829 4.32,-3.60318 4.7699,-4.30666 11.07761,-10.26 2.51249,-1.96464 2.16,-1.43305 2.16,-1.15046 2.17342,-0.85185 2.14658,-0.54625 2.16,-0.28313 2.16,-0.0635 2.7,0.15236 3.78,0.4796 16.74,2.46241 8.64,1.10344 2.7,0.58225 2.16,0.692 1.78264,0.8208 1.45736,0.938 1.08,0.92526 1.08,1.21914 0.82704,1.2376 0.8036,1.62 0.57528,1.62 0.51179,2.16 0.28962,2.16 0.12355,2.7 -0.0918,2.7 -0.34399,3.24 -0.56545,3.24 -0.9068,3.78 -1.14942,3.78 -1.37886,3.78 -1.59958,3.78 -1.95496,4.0479 -2.20827,4.0521 -2.65173,4.33989 -2.93227,4.30011 -3.00773,3.99069 -3.24,3.91665 -3.24,3.58831 -3.56188,3.62435 -3.45812,3.24196 -3.78,3.26925 -4.32,3.42638 -4.32,3.13288 -4.32,2.86737 -4.32,2.62585 -4.86,2.68819 -5.02997,2.50812 -4.82225,2.16 -5.26778,2.10284 -4.86,1.71499 -5.4,1.66387 -5.4,1.42029 -5.46084,1.19801 -5.33916,0.94537 -5.4,0.7359 -5.4,0.5178 -5.4,0.30229 -5.4,0.09 -5.4,-0.12261 -4.86,-0.29097 v 0"
           style="fill:none;stroke:#3a1148;stroke-width:2"
           id="path1472" />
      </g>
      <g
         id="LineCollection_10">
        <path
           clip-path="url(#p97c0e64012)"
           d="m 217.62,319.68353 -5.4,-0.12999 -5.4,-0.3365 -5.4,-0.54495 -5.4,-0.7556 -5.4,-0.96849 -5.4,-1.187 -5.65296,-1.481 -5.30732,-1.62 -5.23972,-1.82549 -5.4,-2.12492 -5.4,-2.38448 -4.86,-2.37946 -4.88157,-2.62565 -4.83843,-2.85105 -4.86,-3.12854 -4.86,-3.41698 -4.32,-3.29884 -4.32,-3.56761 -4.32,-3.86447 -3.78,-3.64926 -4.12477,-4.30325 -3.81953,-4.32 -3.52979,-4.32 -3.26646,-4.32 -3.387041,-4.86 -3.107032,-4.86 -2.847625,-4.86 -2.605867,-4.86 L 88.02,235.78097 85.721515,230.58 l -2.14056,-5.4 -1.901349,-5.4 -1.672552,-5.4 -1.451177,-5.4 -1.238179,-5.4 -1.029476,-5.4 -0.826166,-5.4 -0.67767,-5.94 -0.439547,-5.94 -0.203208,-5.94 0.03214,-5.94 0.267039,-5.94 0.50436,-5.94 0.665348,-5.4 0.964878,-5.94 1.091529,-5.4 1.301436,-5.4 1.516529,-5.4 1.740686,-5.4 2.014423,-5.51055 2.171412,-5.28945 2.470231,-5.4 2.452531,-4.86 2.684672,-4.86 2.932516,-4.86 3.197819,-4.86 3.08328,-4.32 3.33038,-4.32 3.5988,-4.32 3.89724,-4.32 3.68024,-3.78 4.30088,-4.087835 4.32,-3.787321 4.32,-3.499079 4.32,-3.23509 4.86,-3.350052 L 144.77315,46.44 149.58,43.666375 154.57079,41.04 159.84,38.531576 l 4.86,-2.086413 5.4,-2.074631 5.4,-1.829073 5.4,-1.592793 5.4,-1.364707 5.4,-1.14252 5.4,-0.926404 5.4,-0.712537 5.4,-0.503236 5.4,-0.29539 5.4,-0.08847 5.4,0.119341 5.4,0.32682 5.4,0.536765 5.4,0.749607 5.42982,0.972064 5.37018,1.183066 5.4,1.41751 5.4,1.654533 4.86,1.700063 5.42344,2.144828 5.37656,2.398884 4.9474,2.461116 4.90703,2.7 4.72557,2.862754 4.63147,3.077246 4.45669,3.24 4.08974,3.24 4.1021,3.536077 3.78,3.54419 3.78,3.859518 3.27736,3.640215 3.20264,3.868443 3.24,4.287167 2.9222,4.26439 2.67379,4.32 2.39866,4.32 2.13211,4.32 1.8705,4.320001 1.60866,4.32 1.34092,4.32 0.94382,3.78 0.71383,3.78 0.40941,3.24 0.19714,3.24 -0.0277,2.7 -0.24224,2.7 -0.39005,2.16 -0.62577,2.16 -0.80524,1.85651 -0.84106,1.38349 -0.8747,1.08 -1.18498,1.08 -1.41926,0.90946 -1.62,0.70036 -1.62,0.45556 -2.16,0.36371 -2.7,0.22316 -4.86,0.12705 -7.02,0.21856 -4.32,0.35211 -4.32,0.56031 -4.86,0.84835 -8.1,1.46315 -2.91834,0.25822 -1.94166,-0.0144 -2.16,-0.26083 -1.62,-0.39629 -1.62,-0.5882 -1.82123,-0.90028 -1.95877,-1.23448 -2.16,-1.6507 -2.83255,-2.51482 -3.85249,-3.78 -8.97496,-8.85492 -3.97216,-3.56508 -3.93607,-3.24 -3.59512,-2.7 L 248.94,113.08729 245.06318,110.7 241.12898,108.54 237.6,106.81667 233.82,105.18681 229.77455,103.68 226.26,102.55983 222.36485,101.52 218.7,100.7261 l -4.32,-0.70555 -4.32,-0.46437 -4.32,-0.22308 -4.32,0.01494 -4.32,0.253844 -4.32,0.499796 -4.32,0.75037 -4.32,1.00865 -4.32,1.2813 -3.78,1.35279 -3.78,1.58739 -3.9308,1.91782 -3.0892,1.71159 -3.32987,2.06841 -3.15013,2.18999 -3.42472,2.67001 -3.08426,2.7 -2.7703,2.7 -2.97264,3.24 -2.64288,3.24 -2.3852,3.28574 -2.16,3.34504 -1.77754,3.08922 -1.91208,3.78 -1.71038,3.93988 -1.33877,3.62012 -1.16849,3.78 -1.06543,4.32 -0.74731,4.06338 -0.45657,3.49662 -0.32539,4.32 -0.0708,3.78 0.12762,3.78 0.32698,3.78 0.52874,3.78 0.73451,3.78 0.94761,3.78 1.16849,3.78 1.40196,3.78 1.64719,3.78 1.91208,3.78 2.2017,3.78 2.27584,3.43214 2.2652,3.04786 2.69437,3.24 3.0323,3.24 2.82923,2.7 3.2189,2.75191 3.48688,2.64809 3.1959,2.16 3.03722,1.84206 3.78,2.02921 3.78,1.76478 3.78,1.51884 3.78,1.29069 4.32,1.21 4.32,0.94412 4.32,0.68575 4.32,0.43895 4.32,0.19402 4.32,-0.0454 4.32,-0.28251 4.32,-0.52419 4.32,-0.76842 4.32,-1.01451 4.32,-1.27015 3.78,-1.32692 4.43331,-1.82628 3.66669,-1.73658 3.82262,-2.04342 3.73738,-2.23584 3.93592,-2.62416 3.66182,-2.7 3.99845,-3.24 4.06381,-3.60393 4.13772,-3.95607 11.01035,-10.8 2.13193,-1.75436 2.16,-1.50644 2.16,-1.17938 1.62,-0.65403 1.62,-0.45897 2.16,-0.33338 2.16,-0.0645 2.7,0.20148 3.24,0.49496 12.96,2.25971 4.32,0.42851 4.86,0.24905 11.34,0.42823 2.16,0.36371 1.62,0.45556 1.62,0.70036 1.41926,0.90946 0.74074,0.63196 1.08,1.20316 0.91681,1.40488 0.76532,1.62 0.69751,2.16 0.44258,2.16 0.2913,2.7 0.0671,2.7 -0.15825,3.24 -0.37571,3.24 -0.67944,3.78 -0.91161,3.78 -1.12885,3.78 -1.54675,4.33151 -1.80127,4.30849 -2.06628,4.32 -2.3315,4.32 -2.60377,4.32 -2.88887,4.32 -2.88831,3.92774 -3.36077,4.17226 -3.32714,3.78 -3.62075,3.78 -3.94795,3.78 -4.10339,3.60169 -3.78,3.05696 -4.32,3.21949 -4.51444,3.08186 -4.66556,2.90855 -4.86,2.75627 -4.86,2.49834 -4.86,2.25666 -4.86,2.03059 -5.4,2.00383 -5.3772,1.74576 -4.8828,1.37701 -5.49255,1.32299 -5.43941,1.08 -5.26804,0.83345 -5.4,0.64288 -5.4,0.43136 -5.4,0.22325 -3.78,0.0326 v 0"
           style="fill:none;stroke:#541e7e;stroke-width:2"
           id="path1475" />
      </g>
      <g
         id="LineCollection_11">
        <path
           clip-path="url(#p97c0e64012)"
           d="M 206.28,321.87248 200.65148,321.3 194.94,320.49008 l -5.4,-0.98033 -5.4,-1.1937 -5.4,-1.4116 -5.4,-1.63677 -5.4,-1.8695 -5.4,-2.11119 -4.86,-2.11611 -5.09913,-2.45088 -5.16087,-2.73503 -4.86,-2.82468 -4.86,-3.08134 -4.86,-3.35978 -4.32,-3.23789 -4.51646,-3.66128 -4.30727,-3.78 -4.13627,-3.92299 -4.07402,-4.17701 -3.8948,-4.32 L 103.9882,267.3 100.44,262.6976 97.182298,258.12 93.96,253.20103 91.072272,248.4 88.38954,243.54 85.86,238.52604 83.458692,233.28 l -2.224775,-5.4 -1.985958,-5.4 -1.756736,-5.4 -1.53678,-5.4 -1.445165,-5.94 L 73.315443,199.8 72.36,193.82857 71.653651,187.92 l -0.47607,-5.94 -0.242345,-5.94 -0.01056,-5.94 0.221351,-5.94 0.45477,-5.94 0.689433,-5.94 0.834641,-5.4 1.149626,-5.94 L 75.6,135.28316 77.165978,129.6 l 1.712191,-5.4 1.939756,-5.4 2.176031,-5.4 L 85.32,108.20831 87.824825,103.14 90.455791,98.28 93.42,93.26663 96.66,88.24984 99.9,83.636041 103.55671,78.84 107.1256,74.52 110.98215,70.2 115.02,66.017974 119.10774,62.1 l 4.25957,-3.78 4.61348,-3.78 4.85921,-3.659168 4.32,-2.999965 4.86,-3.11213 4.86,-2.851584 4.86,-2.609213 5.4,-2.631142 5.4,-2.363788 5.4,-2.111194 5.4,-1.869495 5.4,-1.636768 5.4,-1.411605 5.4,-1.193696 5.4,-0.980334 5.71148,-0.809918 5.62852,-0.572476 5.94,-0.363627 5.4,-0.118565 5.4,0.08454 5.4,0.287453 5.4,0.492218 5.60913,0.730457 5.19087,0.879413 5.4,1.125938 5.4,1.347467 5.4,1.57633 5.4,1.81468 5.4,2.063048 4.86,2.080252 4.86,2.304583 4.86,2.541817 4.86,2.797062 4.86,3.071524 4.67362,3.237886 4.28924,3.24 3.99714,3.275159 4.2058,3.744841 3.89896,3.78 3.77524,3.986498 3.57112,4.113502 3.01595,3.78 3.15936,4.32 2.87264,4.32 2.60396,4.32 2.34689,4.32 2.09943,4.32 1.93065,4.5028 1.62,4.35752 1.29945,4.09968 1.12713,4.32 0.81342,4.01331 0.54,3.74486 0.2964,3.58183 0.0551,3.24 -0.1901,3.24 -0.39797,2.7 -0.52958,2.16 -0.56827,1.62 -0.82555,1.70054 -0.65104,0.99946 -0.96896,1.12919 -1.27811,1.03081 -0.96348,0.54 -1.53841,0.5617 -1.62,0.30853 -2.16,0.12439 -2.7,-0.11651 -5.4,-0.55571 -5.4,-0.47866 -3.78,-0.13407 -3.78,0.083 -3.78,0.31674 -3.78,0.54578 -4.32,0.86833 -9.72,2.15311 -2.16,0.23332 -2.16,-0.003 -1.62,-0.20661 -1.75263,-0.45996 -1.48737,-0.59504 -1.86225,-1.02496 -1.56114,-1.08 -1.97748,-1.62 -2.69913,-2.56201 -4.7469,-4.99799 -7.24225,-7.56 -4.21085,-3.99517 -3.78,-3.27193 -3.80931,-2.9929 -3.80993,-2.7 -3.72076,-2.36811 -3.78,-2.14695 -3.91828,-1.96494 -3.68305,-1.62 -3.73867,-1.4304 -4.32,-1.39209 -3.78,-0.99847 -3.78,-0.80195 -4.32,-0.67739 -4.32,-0.42994 -4.32,-0.18181 -4.32,0.0623 -4.32,0.31063 -4.32,0.56351 -4.32,0.82244 -3.78,0.94151 -3.78,1.15499 -3.78,1.38224 -4.05773,1.7544 -3.50227,1.75408 -3.78,2.16933 -3.24,2.1104 -3.24,2.36851 -3.24,2.66208 -2.7,2.47577 -2.7,2.74622 -2.77225,3.15361 -2.62775,3.37095 -2.16,3.11728 -2.16,3.51759 -1.62,2.97911 -1.62,3.37047 -1.50916,3.6246 -1.33062,3.78 -1.09708,3.78 -0.92314,4.03332 -0.61014,3.52668 -0.46986,4.0038 -0.22824,3.5562 -0.0434,3.78 0.15973,3.78 0.36215,3.78 0.56965,3.78 0.8001,3.85028 0.98252,3.70972 1.22928,3.78 1.46943,3.78 1.72797,3.78 1.70004,3.24 2.07076,3.47424 2.16,3.208 2.28998,3.03776 2.74048,3.24 2.55323,2.7 2.83627,2.7 3.17432,2.7 3.14572,2.38725 3.24,2.19323 3.78,2.25613 3.78,1.96302 3.78,1.69651 3.78,1.44893 3.78,1.21996 3.78,1.00057 3.78,0.7926 4.32,0.65873 4.32,0.40597 4.32,0.15437 4.32,-0.0901 4.32,-0.33702 4.32,-0.58476 4.32,-0.83449 4.32,-1.09289 4.32,-1.36001 3.78,-1.41368 4.32,-1.88879 3.78,-1.90051 4.12252,-2.35506 3.43748,-2.19964 3.78,-2.68221 3.78,-2.97105 3.78,-3.27193 3.78,-3.57065 4.32,-4.40677 10.26,-10.65365 2.16,-1.83363 2.16,-1.50316 1.74334,-0.92731 1.49666,-0.58574 1.62,-0.41422 1.62,-0.20661 2.16,-0.003 2.16,0.23332 3.24,0.62446 11.49811,2.51217 3.62189,0.48927 3.78,0.2841 3.78,0.0505 3.78,-0.1627 4.86,-0.44356 6.48,-0.62725 2.7,-0.0155 1.62,0.17281 1.62,0.39335 1.08,0.43727 1.08,0.63386 1.12899,0.94787 1.03101,1.23389 0.87439,1.46611 0.74561,1.74176 0.60716,2.03824 0.47284,2.47032 0.25545,2.38968 0.10243,3.24 -0.12653,3.24 -0.39061,3.78 -0.62123,3.78 -0.83951,3.81723 -1.18125,4.28277 -1.4363,4.32 -1.70245,4.38052 -1.89266,4.25948 -2.16069,4.32 -2.42665,4.3486 -2.7,4.36357 -2.8962,4.24783 -3.23378,4.32 -3.08586,3.78 -3.74416,4.20952 -3.24,3.35807 -3.93868,3.77241 -4.16132,3.66247 -4.14751,3.35753 -4.49249,3.34176 -4.60595,3.13824 -4.57405,2.85338 -4.86,2.76748 -4.86,2.51538 -5.4,2.5177 -4.86,2.03222 -5.4,2.0126 -5.4,1.76576 -5.4,1.5301 -5.4,1.30277 -5.4,1.08246 -5.4,0.86778 -5.4,0.6577 -5.4,0.45102 -5.4,0.24694 -5.4,0.0439 -5.4,-0.1591 -4.86,-0.31561 v 0"
           style="fill:none;stroke:#5e45a6;stroke-width:2"
           id="path1478" />
      </g>
      <g
         id="LineCollection_12">
        <path
           clip-path="url(#p97c0e64012)"
           d="m 207.9,324.56632 -5.4,-0.46698 -5.4,-0.66725 -5.94,-0.96938 -5.68771,-1.16271 -5.65229,-1.38875 -5.4,-1.54921 -5.4,-1.77384 -5.4,-2.00722 -5.4,-2.25021 -5.12441,-2.37077 -5.28724,-2.7 -5.24835,-2.95086 -4.86215,-2.98914 -4.85785,-3.25166 -4.86,-3.53942 -4.39702,-3.46892 -4.43332,-3.78 -4.12966,-3.80039 -4.32242,-4.29961 -4.0105,-4.32 -3.71344,-4.32 -3.61364,-4.54187 -3.409962,-4.63813 -3.294227,-4.86 -3.031219,-4.86 -3.079821,-5.4 -2.530427,-4.86 -2.559586,-5.4 -2.307407,-5.4 -2.068764,-5.4 -1.839846,-5.4 -1.620041,-5.4 -1.407594,-5.4 -1.310095,-5.94 -0.979828,-5.4 -0.851222,-5.94 -0.616276,-5.94 -0.385774,-5.94 -0.155527,-5.94 0.07247,-5.94 0.302284,-5.94 0.532215,-5.94 0.764757,-5.94 0.901184,-5.4 1.220788,-5.94 1.324358,-5.4 1.69961,-5.94 1.773056,-5.4 1.999031,-5.4 2.234835,-5.4 2.481934,-5.4 2.744141,-5.4 2.707045,-4.86 L 91.8,90.431401 95.04,85.542559 98.302956,81 102.08799,76.14 105.84,71.696646 109.66531,67.5 113.94,63.162469 l 4.32,-4.04723 4.32,-3.745375 4.39545,-3.529864 4.78455,-3.546846 4.86,-3.314631 4.86,-3.045537 4.86,-2.795005 4.86,-2.560141 5.4,-2.584906 5.4,-2.324926 5.4,-2.079074 5.4,-1.842764 5.4,-1.61584 5.4,-1.396297 5.94,-1.288878 5.4,-0.953046 5.94,-0.812439 5.4,-0.526707 5.94,-0.348717 5.94,-0.108895 5.94,0.131281 5.94,0.372223 5.94,0.615947 5.4,0.773954 5.4,0.982403 5.70531,1.268841 5.09469,1.340217 5.4,1.640265 5.41215,1.879518 5.48989,2.16 5.29796,2.338884 5.13878,2.521116 4.98561,2.7 4.55307,2.7 4.76254,3.082842 4.32,3.044215 4.32,3.302651 4.32,3.587717 4.12324,3.722575 3.97676,3.901678 3.78,4.033564 3.40314,3.944758 3.42286,4.32 3.13019,4.32 3.00381,4.551496 2.7,4.515055 2.16,3.979756 2.32977,4.773693 1.99023,4.61585 1.62,4.28261 1.33595,4.06154 1.20541,4.32 0.97768,4.32 0.74078,4.32 0.43944,3.78 0.22707,3.78 -0.0161,3.78 -0.2463,3.24 -0.41032,2.7 -0.50701,2.16 -0.73398,2.16 -0.85262,1.76249 -1.03225,1.47751 -0.58775,0.62135 -1.08,0.83243 -1.08,0.52866 -1.08,0.30209 -1.62,0.14475 -1.62,-0.11026 -2.16,-0.39136 -3.78,-0.99189 -6.48,-1.72244 -3.78,-0.75269 -3.78,-0.49111 -3.24,-0.19053 -3.24,0.028 -3.24,0.24576 -3.24,0.46401 -3.24,0.66485 -4.32,1.14705 -8.1,2.28134 -2.16,0.34718 -1.62,0.0824 -1.62,-0.11948 -1.62,-0.36013 -1.62,-0.62656 -1.62,-0.90032 -1.62,-1.15966 -2.16,-1.89257 -2.76413,-2.84089 -4.30655,-4.86 -5.88932,-6.57781 -3.78,-3.89041 -3.24,-3.07311 -3.78,-3.27603 -3.78,-2.9537 -3.78,-2.64871 -3.87889,-2.42023 -3.68111,-2.03833 -3.78,-1.84419 -3.78,-1.60656 -3.78,-1.38098 -4.32,-1.31279 -4.11512,-0.99715 -3.44488,-0.65331 -3.78,-0.52638 -3.78,-0.33173 -4.32,-0.14158 -4.32,0.10997 -3.78,0.30524 -4.32,0.59332 -4.32,0.8596 -3.78,0.98081 -3.78,1.20268 -3.78,1.43965 -3.78,1.69031 -3.78,1.96442 -3.24,1.92097 -3.24,2.16504 -3.26833,2.46099 -3.21167,2.72568 -2.80916,2.67432 -2.59084,2.75018 -2.7,3.21188 -2.40041,3.21794 -2.14291,3.24 -2.19138,3.78 -1.9053,3.81473 -1.38688,3.20527 -1.39578,3.78 -1.15535,3.78 -0.92362,3.78 -0.70598,3.78 -0.4901,3.78 -0.28101,3.78 -0.0731,3.78 0.13183,3.78 0.34208,3.78 0.55088,3.78 0.76509,3.78 0.99002,3.78 1.22217,3.78 1.46875,3.78 1.73081,3.78 2.01663,3.78 2.05356,3.35742 2.16,3.13022 2.50884,3.23236 2.35116,2.70752 2.7,2.79692 2.79501,2.59556 3.26091,2.7 3.12408,2.29962 3.24,2.12246 3.56245,2.05792 3.45755,1.74914 3.78,1.65379 3.94048,1.45707 3.61952,1.11683 3.78,0.94989 4.32,0.82678 3.78,0.50429 3.78,0.30524 4.32,0.10997 4.32,-0.14158 3.78,-0.33173 4.32,-0.61848 4.32,-0.87531 4.32,-1.14265 4.32,-1.41775 3.78,-1.47714 3.78,-1.70631 3.94523,-2.04205 3.68385,-2.16 3.71092,-2.43931 3.78,-2.77696 3.54004,-2.88373 3.61314,-3.24 3.84245,-3.78 4.12437,-4.41772 6.09434,-6.92228 3.47515,-3.78 1.77051,-1.72633 2.16,-1.80096 1.62,-1.07601 1.62,-0.80933 1.62,-0.53603 1.62,-0.27631 1.62,-0.0475 2.16,0.22034 2.16,0.44906 3.78,1.06364 6.48,1.85346 3.78,0.8323 3.24,0.49848 3.24,0.28159 3.24,0.0655 3.24,-0.15508 3.24,-0.36891 3.78,-0.68274 3.78,-0.91109 9.18,-2.35647 1.62,-0.17326 1.62,0.0475 1.08,0.20956 1.32656,0.53861 0.83629,0.54 1.1249,1.08 1.03225,1.47751 0.62255,1.22249 0.80411,2.16 0.55627,2.16 0.45538,2.7 0.28737,3.24 0.0624,3.24 -0.16094,3.78 -0.38125,3.78 -0.62589,4.03169 -0.84499,4.06831 -1.12078,4.32 -1.34431,4.32 -1.56535,4.32 -1.78722,4.32 -2.01063,4.32 -2.24113,4.32 -2.58559,4.49638 -2.7,4.2618 -2.91372,4.20182 -3.27371,4.32 -3.53257,4.26723 -3.45,3.83277 -3.68403,3.78 -3.99532,3.78 -3.99065,3.48317 -4.39642,3.53683 -4.37901,3.24 -4.77123,3.24 -4.81334,2.98735 -4.86,2.75351 -4.86,2.50765 -4.86,2.27706 -4.86,2.0598 -5.4,2.04693 -5.4,1.80357 -5.4,1.57155 -5.77176,1.43258 -5.56824,1.14724 -5.94,0.97702 -5.4,0.67147 -5.94,0.5049 -5.94,0.26219 -5.94,0.0221 -5.94,-0.21777 -1.62,-0.1008 v 0"
           style="fill:none;stroke:#606db8;stroke-width:2"
           id="path1481" />
      </g>
      <g
         id="LineCollection_13">
        <path
           clip-path="url(#p97c0e64012)"
           d="m 212.22,327.25074 -5.94,-0.33657 -5.94,-0.57292 -5.94,-0.81205 -5.94,-1.05508 -5.94,-1.30331 -5.4,-1.40458 -5.4,-1.62085 -5.4,-1.84424 -5.4,-2.07554 -5.4,-2.31728 -4.91335,-2.32832 -5.34665,-2.78574 -4.86,-2.77295 -4.95951,-3.08131 -4.79687,-3.24 -4.82362,-3.5367 -4.39294,-3.4833 -4.41741,-3.78 -4.14965,-3.82809 -4.32,-4.30269 -3.98347,-4.28922 -3.72046,-4.32 L 97.2,267.60358 93.786187,262.98 l -3.313084,-4.86 -3.052598,-4.86 -3.106985,-5.4 -2.556502,-4.86 -2.590637,-5.4 -2.341327,-5.4 -2.103957,-5.4 -1.877648,-5.4 -1.812989,-5.94 -1.428214,-5.4 -1.334724,-5.94 -1.094897,-5.94 -0.860081,-5.94 -0.628616,-5.94 -0.401068,-5.94 -0.173883,-5.94 0.05118,-5.94 0.276832,-5.94 0.503954,-5.94 0.733846,-5.94 0.965953,-5.94 1.203529,-5.94 1.446137,-5.94 1.697004,-5.94 1.767309,-5.4 1.989342,-5.4 2.221337,-5.4 2.4946,-5.4642 2.7,-5.355199 L 86.143311,94.5 89.1,89.616117 92.34,84.692259 95.74733,79.92 99.36,75.247269 103.14,70.726309 107.02852,66.42 111.24159,62.1 115.56,58.005616 119.88,54.21127 124.2,50.690655 129.12811,46.98 133.92,43.658597 138.87179,40.5 144.18,37.40173 149.04,34.808929 153.97594,32.4 159.3,30.04368 164.7,27.896721 170.29253,25.92 176.04,24.140672 181.49112,22.68 187.38,21.34452 l 5.94,-1.099804 5.94,-0.856489 5.94,-0.616031 5.94,-0.3793 5.94,-0.14298 5.94,0.09197 5.94,0.329078 5.94,0.566912 5.94,0.808224 5.94,1.054547 5.94,1.307154 5.4,1.4128 5.4,1.6349 5.4,1.865391 5.4,2.105702 5.4,2.358326 4.86,2.351383 4.86511,2.583694 4.85489,2.824306 4.89742,3.115694 4.82258,3.353843 4.32,3.26717 4.43451,3.638987 4.2396,3.78 3.90991,3.78 3.61679,3.78 3.80856,4.32 3.49389,4.32 3.20622,4.32 2.99052,4.398507 2.7,4.34577 2.7,4.790109 2.44064,4.825614 1.95757,4.32 1.9521,4.860003 1.69339,4.86 1.28952,4.32 1.20842,4.86 0.8563,4.32 0.64427,4.32 0.4246,4.32 0.18819,4.32 -0.046,3.78 -0.26933,3.78 -0.45971,3.34172 -0.67772,3.13828 -0.85177,2.7 -0.70063,1.62 -1.00988,1.69351 -1.08,1.17659 -1.08,0.67679 -1.08,0.28846 -1.08,-0.007 -1.08,-0.22552 -1.62,-0.61529 -2.16,-1.10653 -8.1,-4.44539 -2.7,-1.219 -2.82052,-1.07657 -2.57948,-0.80405 -3.24,-0.75886 -3.24,-0.48823 -3.24,-0.21809 -2.7,0.0218 -3.24,0.26532 -3.24,0.52346 -3.24,0.76907 -3.78,1.17474 -4.86,1.79602 -3.78,1.33683 -2.16,0.55401 -1.62,0.22154 -1.62,-0.0103 -1.62,-0.29498 -1.62,-0.61593 -1.62,-0.94529 -1.83787,-1.4471 -1.69172,-1.62 -1.98354,-2.16 -3.16939,-3.78 -6.97748,-8.39292 -3.24,-3.58417 -3.61826,-3.68291 -3.50391,-3.24 -3.67783,-3.07177 -3.24,-2.44304 L 245.12059,116.1 241.38,113.85426 237.44766,111.78 233.82,110.10843 229.87002,108.54 226.26,107.32191 l -3.78,-1.06062 -3.78,-0.84978 -4.32,-0.71974 -3.78,-0.41461 -4.32,-0.23158 -3.78,0.0102 -3.78,0.21006 -3.78,0.41047 -3.81111,0.62365 -3.74889,0.82142 -3.78,1.04985 -4.00845,1.36873 -3.55155,1.44176 -3.78622,1.79824 -3.23378,1.76304 -3.26449,2.01696 -3.21551,2.24168 -3.32129,2.61832 -3.03349,2.7 -2.82522,2.82652 -2.7644,3.11348 -2.6356,3.36279 -2.16056,3.11721 -1.99109,3.24 -2.02463,3.78 -1.73308,3.78 -1.46503,3.78 -1.21458,3.78 -0.97753,3.78 -0.75001,3.78 -0.53123,3.78 -0.31725,3.78 -0.10533,3.78 0.10533,3.78 0.31725,3.78 0.53123,3.78 0.75001,3.78 0.97753,3.78 1.21458,3.78 1.46503,3.78 1.73308,3.78 2.02463,3.78 1.99165,3.24086 2.24991,3.23914 2.61009,3.31667 2.7,3.03681 2.7,2.70794 2.7,2.43078 3.24,2.60226 3.24,2.30498 3.24,2.04061 3.24,1.80518 3.91991,1.89477 3.64009,1.50353 3.78,1.31611 3.78,1.08224 3.78,0.85985 4.32,0.72192 3.78,0.41047 4.32,0.22372 3.78,-0.0182 3.78,-0.2168 3.78,-0.41461 4.32,-0.71974 3.78,-0.84978 4.32,-1.23059 3.78,-1.30984 3.78,-1.54046 3.78,-1.78154 3.78,-2.03735 3.78,-2.31071 3.78,-2.60391 3.24,-2.48359 3.24,-2.73088 3.40174,-3.14984 3.61826,-3.68291 3.24,-3.58417 3.89409,-4.61292 6.90591,-8.29902 2.42877,-2.50098 1.35123,-1.18329 1.62,-1.15477 1.62,-0.83611 1.62,-0.50672 1.62,-0.19517 1.77994,0.0961 1.46006,0.2631 2.16,0.60979 3.78,1.37111 5.4,1.95379 3.78,1.09391 3.24,0.6878 2.7,0.38444 3.24,0.22274 2.7,-0.0155 3.24,-0.26188 2.7,-0.4264 2.7,-0.61365 3.11948,-0.94926 2.82877,-1.08 3.23175,-1.48067 3.31512,-1.75933 6.40488,-3.52749 1.62,-0.61529 1.08,-0.22553 1.08,-0.007 1.08,0.28846 1.08,0.67679 0.70402,0.7101 0.91598,1.28762 0.72307,1.41238 0.82685,2.16 0.61108,2.16 0.64486,3.24 0.43414,3.52623 0.20853,3.49377 0.0164,3.78 -0.22497,4.39996 -0.44632,4.24004 -0.67122,4.32 -0.88223,4.32 -1.08701,4.32 -1.28952,4.32 -1.69339,4.86 -1.9521,4.86 -1.95757,4.32 -2.17238,4.32 -2.42826,4.3769 -2.7,4.42607 -2.77113,4.15703 -3.16887,4.36124 -3.38902,4.27876 -3.72716,4.32 -3.68382,3.92976 -3.78,3.728 -4.32,3.92819 -4.32,3.61467 -4.32,3.3329 -4.32,3.07847 -4.93034,3.22801 -4.78966,2.86825 -4.86,2.66127 -5.16347,2.57048 -5.09653,2.29314 -5.4,2.18012 -5.60978,2.00674 -5.19022,1.63275 -5.91019,1.60725 -5.42981,1.24794 -5.94,1.12267 -5.94,0.87563 -5.94,0.63214 -5.94,0.3935 -5.94,0.15641 -5.94,-0.0788 -0.54,-0.0188 v 0"
           style="fill:none;stroke:#6e91c0;stroke-width:2"
           id="path1484" />
      </g>
      <g
         id="LineCollection_14">
        <path
           clip-path="url(#p97c0e64012)"
           d="m 207.9,329.40032 -5.94,-0.49403 -5.94,-0.72834 -5.94,-0.96506 -5.94,-1.20734 -5.98413,-1.46555 -5.89587,-1.6969 -5.4,-1.78132 -5.4,-2.00591 -5.4,-2.24086 -5.50129,-2.53501 -5.30667,-2.7 -5.39204,-3.01573 -4.86,-2.96711 -4.86,-3.22117 -4.86,-3.49493 -4.50224,-3.50106 -4.67776,-3.93163 -4.32,-3.9232 -4.11437,-4.02517 -4.09656,-4.32 -3.799454,-4.32 L 96.12,270.38859 92.560862,265.68 89.1,260.71986 85.86,255.67359 82.844639,250.56 80.212446,245.7 77.539099,240.3 75.06,234.76941 72.9,229.42164 70.787841,223.56 l -1.719137,-5.4 -1.649008,-5.94 -1.403485,-5.94 -1.16524,-5.94 -0.931328,-5.94 -0.70317,-5.94 -0.476593,-5.94 -0.252892,-5.94 -0.03028,-5.94 0.191666,-5.94 0.416041,-5.94 0.655584,-6.05799 0.854353,-5.82201 1.100845,-5.94 1.337551,-5.94 1.58125,-5.94 1.833317,-5.94 1.932684,-5.5101 2.16,-5.49374 2.266294,-5.19616 2.59644,-5.4 2.857705,-5.4 L 85.32,90.810018 88.449503,85.86 91.8,80.975466 95.395917,76.14 98.86249,71.82 102.6,67.491303 106.61197,63.18 l 4.34127,-4.32 4.09432,-3.78 4.40756,-3.78 4.76363,-3.78 4.84125,-3.543318 4.86,-3.280184 4.86,-3.022521 4.86,-2.781452 4.86,-2.555405 5.50771,-2.63712 5.29229,-2.288201 5.4,-2.09893 5.4,-1.869761 5.4,-1.64984 5.4,-1.436666 5.94,-1.341142 5.4,-1.006701 5.94,-0.878724 5.94,-0.642507 5.94,-0.409399 5.94,-0.177253 5.94,0.05395 5.94,0.285522 5.94,0.519505 5.94,0.756547 5.94,0.996603 5.94,1.242785 5.4,1.348626 5.43649,1.575591 5.36351,1.7765 5.4,2.019441 5.4,2.263562 5.4,2.519843 4.86,2.500984 4.86,2.735493 4.86,2.986768 4.86,3.258899 4.33848,3.15851 4.30152,3.386594 4.32,3.681461 4.32,3.996374 4.03762,4.055571 3.52238,3.826034 3.78,4.450926 3.24,4.14415 3.24,4.506425 3.07155,4.672465 2.59508,4.32 2.65437,4.86 2.38743,4.86 2.13129,4.860005 1.8842,4.86 1.64363,4.86 1.45245,5.02854 1.13014,4.69146 0.94247,4.86 0.71046,4.86 0.47731,4.86 0.24054,4.86 0.005,4.86 -0.22915,4.86 -0.45473,4.86 -0.71918,5.4 -1.13398,8.1 -0.22221,3.24 0.0193,2.7 0.26239,3.24 0.74787,5.4 1.04582,7.56 0.49131,5.4 0.20376,4.86 -0.0308,4.86 -0.26683,4.86 -0.51896,4.98285 -0.72094,4.73715 -0.96803,4.86 -1.20067,4.86 -1.43322,4.86 -1.67036,4.86 -1.91166,4.86 -2.15931,4.86 -2.41602,4.86 -2.68482,4.86 -2.96839,4.86 -2.92658,4.37177 -3.24,4.44069 -3.28684,4.14754 -3.73316,4.33962 -4.02567,4.30038 -4.07433,4.00614 -3.90717,3.55386 -4.49813,3.78 -4.5547,3.52271 -4.32,3.08454 -4.86,3.1966 -4.86,2.92932 -4.86,2.68197 -4.86,2.45082 -5.4,2.46715 -5.4,2.21367 -5.4,1.9724 -5.4,1.74217 -5.4,1.52068 -5.72061,1.37797 -5.61939,1.1266 -5.94,0.95249 -5.94,0.7128 -5.94,0.47711 -5.94,0.2432 -5.94,0.0119 -5.94,-0.21918 -1.08,-0.0646 v 0"
           style="fill:none;stroke:#8fb1c6;stroke-width:2"
           id="path1487" />
        <path
           clip-path="url(#p97c0e64012)"
           d="m 197.1,239.78652 3.78,0.3124 3.78,0.10591 3.78,-0.0958 3.78,-0.3 4.29929,-0.58901 3.26071,-0.62429 4.04225,-0.99571 3.55121,-1.08 3.74654,-1.35612 3.78,-1.60736 3.84747,-1.89652 3.71253,-2.09265 3.78,-2.41782 3.78,-2.73219 3.24,-2.61329 3.47501,-3.10405 3.28175,-3.24 3.50324,-3.80999 3.24,-3.84605 3.78,-4.82981 7.06373,-9.11415 2.11627,-2.26866 1.77975,-1.51134 1.46025,-0.9126 1.08,-0.45753 1.08,-0.27344 1.08,-0.10113 1.62,0.13611 1.62,0.40797 2.16,0.82561 3.78,1.77537 4.32,1.98412 3.24,1.2532 3.24,0.98703 2.7,0.60408 2.7,0.39922 2.7,0.1934 2.7,-0.0166 2.7,-0.23148 2.7,-0.44911 2.84263,-0.72423 2.55737,-0.87739 2.89497,-1.28261 2.50503,-1.38056 2.16,-1.42239 2.16,-1.67217 2.18752,-2.00488 1.9725,-2.16 1.77998,-2.39234 1.08,-1.77468 0.63547,-1.23298 0.67678,-1.62 0.6137,-2.16 0.23405,-1.74664 0.0275,-1.49336 -0.16323,-1.62 -0.40425,-1.72824 -0.54,-1.5594 -0.70601,-1.57236 -1.24409,-2.16 -1.8299,-2.49822 -1.10286,-1.28178 -2.15964,-2.16 -2.1375,-1.79522 -2.16,-1.54154 -2.54617,-1.52324 -2.31383,-1.14353 -2.7,-1.07705 -2.7,-0.8244 -2.7,-0.58593 -2.7,-0.36168 -2.7,-0.14409 -2.7,0.0673 -2.7705,0.28941 -2.6295,0.47007 -3.24,0.84372 -3.24,1.12389 -3.24,1.37044 -8.64,3.8725 L 287.74025,157.14 286.2,157.2647 285.00817,157.14 284.04,156.89013 282.96,156.4326 281.49975,155.52 280.26,154.51168 278.56419,152.82 276.48,150.39217 272.5315,145.26 266.68281,137.7 262.98,133.3389 259.49104,129.6 255.96,126.17969 252.45241,123.12 248.94,120.36901 l -3.24,-2.28258 -3.78,-2.37554 -3.78,-2.08941 -3.825,-1.84148 -3.735,-1.55294 -3.78,-1.33632 -3.78,-1.10962 -3.78,-0.89066 -3.78,-0.68162 -3.78,-0.47349 -3.78,-0.27042 -3.78,-0.067 -3.78,0.13496 -3.78,0.34187 -3.78,0.54953 -3.78,0.76336 -3.78,0.98761 -3.78,1.22113 -3.78,1.46948 -3.78,1.73567 -3.78,2.02685 -3.26811,2.01163 -3.21189,2.23671 -3.32272,2.62329 -3.02161,2.7 -2.68968,2.7 -2.40893,2.7 -2.59706,3.27399 -2.24447,3.20601 -2.07553,3.37051 -1.68439,3.10949 -1.55561,3.28172 -1.31587,3.19828 -1.31136,3.78 -1.06578,3.78 -0.83164,3.78 -0.60502,3.78 -0.38432,3.78 -0.16927,3.78 0.046,3.78 0.26246,3.78 0.51482,4.00483 0.66376,3.55517 0.95624,3.86818 1.14422,3.69182 1.42186,3.78 1.75392,3.90326 1.62321,3.11674 1.91637,3.24 2.17642,3.24 2.46738,3.24 2.61662,3.04014 2.7,2.78962 2.7,2.49513 2.99843,2.47511 2.94157,2.16545 3.29595,2.15455 3.18405,1.83781 3.78,1.89771 3.78,1.619 3.78,1.36199 3.78,1.11955 3.78,0.88998 3.78,0.67222 2.7,0.34826 v 0"
           style="fill:none;stroke:#8fb1c6;stroke-width:2"
           id="path1489" />
      </g>
      <g
         id="LineCollection_15">
        <path
           clip-path="url(#p97c0e64012)"
           d="m 206.28,331.58055 -5.94,-0.54368 -5.94,-0.77509 -5.94,-1.00874 -5.94,-1.2475 -5.4,-1.34538 -5.94,-1.72001 -5.4,-1.78809 -5.4,-2.00966 -5.4,-2.24068 -5.4,-2.48173 -5.4,-2.73668 -5.4,-3.00628 -4.86,-2.95038 -4.86,-3.19892 -4.86,-3.46654 -4.56821,-3.52119 -4.61179,-3.83672 -4.32,-3.87609 -4.32,-4.17655 -4.32,-4.51352 -3.78,-4.25869 L 94.395743,272.16 90.698685,267.3 87.284789,262.44 84.131092,257.58 81,252.33585 78.252,247.32 l -2.704792,-5.4 -2.456001,-5.4 -2.220455,-5.4 -1.994785,-5.4 -1.915967,-5.84457 -1.62,-5.6512 -1.429167,-5.78423 -1.234319,-5.94 -1.002023,-5.94 -0.775097,-5.94 -0.551279,-5.94 -0.330009,-5.94 -0.109971,-5.94 0.109971,-5.94 0.330009,-5.94 0.551279,-5.94 0.775097,-5.94 1.002023,-5.94 1.234319,-5.94 1.470787,-5.94 1.715703,-5.94 1.967884,-5.94 2.017391,-5.4 2.243285,-5.4 2.480748,-5.4 2.730447,-5.4 2.683363,-4.86 3.019559,-5.034478 3.24,-4.974157 3.24,-4.600511 3.78,-4.96242 3.901302,-4.728434 3.845678,-4.32 4.14233,-4.32 4.47503,-4.32 4.22127,-3.78 4.79439,-3.978139 4.86,-3.722146 4.86,-3.435304 4.86,-3.170567 4.94568,-2.973844 5.31432,-2.928484 5.4,-2.71047 L 155.52695,26.46 160.92,24.246136 166.66398,22.14 172.26,20.328252 l 5.94,-1.673561 5.94,-1.424737 5.94,-1.181577 5.94,-0.94494 5.94,-0.71097 5.94,-0.481216 5.94,-0.252653 5.94,-0.02515 5.94,0.202812 5.94,0.431791 5.94,0.663113 5.94,0.897937 5.94,1.137489 5.94,1.382447 5.4,1.476843 5.64448,1.774118 5.15552,1.834896 5.4,2.150529 5.4,2.396081 4.86,2.378309 4.86,2.600507 4.86,2.838103 4.86,3.091581 4.86,3.367419 4.32,3.244362 4.47943,3.638213 4.29697,3.78 4.1836,3.98545 3.98744,4.11455 3.8608,4.32 3.55883,4.32 3.28181,4.32 3.13112,4.476556 3.01475,4.703444 2.83809,4.86 2.57196,4.86 2.3752,4.982293 2.16,5.078419 1.70921,4.51929 1.62089,4.86 1.5299,5.34402 1.08,4.46498 1.05543,5.311 0.75181,4.86 0.60427,5.4 0.37276,5.4 0.16461,5.94 -0.0581,6.48 -0.41005,21.06 0.30025,9.72 0.17368,8.64 -0.10167,5.94 -0.30598,5.4 -0.53321,5.4 -0.77426,5.4 -0.91042,4.86 -1.11788,4.86 -1.37126,4.99976 -1.62,5.05314 -1.65584,4.5271 -2.12416,5.14319 -2.16,4.67087 -2.44119,4.76594 -2.74763,4.86 -2.91118,4.68689 -3.04747,4.49311 -3.18381,4.32 -3.48872,4.3644 -3.78,4.3561 -3.99292,4.2395 -4.10708,4.02281 -4.32,3.90563 -4.32,3.60752 -4.65057,3.58404 -4.55973,3.24 -4.95698,3.24 -4.73272,2.84056 -4.86,2.67808 -5.4,2.70986 -5.4,2.44701 -5.4,2.19876 -5.4,1.96228 -5.4,1.73659 -5.4,1.51899 -5.57449,1.34787 -5.76551,1.16483 -5.94,0.96291 -5.94,0.7265 -5.94,0.49469 -5.94,0.26491 -5.94,0.037 -5.94,-0.19072 -3.24,-0.19959 v 0"
           style="fill:none;stroke:#c1cdd3;stroke-width:2"
           id="path1492" />
        <path
           clip-path="url(#p97c0e64012)"
           d="m 199.26,238.68377 3.78,0.20754 3.78,-0.002 3.78,-0.2105 3.78,-0.41572 3.95583,-0.66316 3.60417,-0.8058 3.78,-1.06336 3.98285,-1.37084 3.57715,-1.45627 3.78,-1.78943 3.24,-1.74762 3.78,-2.30974 3.49607,-2.41694 2.98393,-2.29328 3.24,-2.75285 3.24241,-3.05387 3.23759,-3.37334 3.17417,-3.64666 3.41975,-4.32 3.66608,-5.05479 8.38143,-11.68521 1.33857,-1.45071 1.62,-1.35975 1.08,-0.62285 1.08,-0.3727 1.08,-0.12978 1.33163,0.15579 0.82837,0.22665 1.62,0.69529 2.7,1.55397 5.4,3.3072 2.7,1.43309 2.7,1.21395 2.7,0.98169 2.7,0.74578 2.7,0.51323 2.7,0.28019 2.7,0.0466 2.7248,-0.19763 2.6752,-0.43262 2.7,-0.69862 2.16,-0.75869 2.16,-0.95868 2.16,-1.18079 2.16,-1.44273 2.16,-1.76439 1.62,-1.59929 1.23166,-1.42419 1.53703,-2.16 1.20138,-2.16 0.88993,-2.16072 0.54,-1.86254 0.35136,-1.91674 0.13097,-2.16 -0.13097,-2.16 -0.40648,-2.16 -0.67661,-2.16 -0.9703,-2.16 -0.99797,-1.72399 -1.08,-1.55202 -1.62,-1.92819 -1.62,-1.59928 -1.62,-1.35665 -2.23028,-1.55987 -2.08972,-1.198 -2.16,-1.01031 -2.16,-0.80953 -2.75683,-0.76216 -2.64317,-0.4769 -2.7,-0.24148 -2.7,-9.5e-4 -2.7,0.23501 -2.77649,0.48432 -2.62351,0.68056 -2.7079,0.93944 -2.6921,1.16353 -2.96347,1.53647 -3.60409,2.16 -4.23244,2.5755 -2.16,0.97785 -1.08,0.28521 -1.08,0.0972 -1.17012,-0.15578 -0.98988,-0.34669 -1.22789,-0.73331 -1.28949,-1.08 -1.26262,-1.31506 -2.16,-2.7016 -3.78,-5.37799 -4.37263,-6.26535 -3.23918,-4.32 -3.18819,-3.90246 -3.24,-3.60719 -2.70746,-2.75035 -3.51506,-3.24 -3.26405,-2.7 -2.93343,-2.19491 -3.24,-2.19005 -3.78,-2.26768 -3.7962,-1.98736 -3.7638,-1.70685 -3.78,-1.4636 -3.78,-1.22647 -3.79933,-1.00308 -3.76067,-0.77724 -3.78,-0.56682 -3.78,-0.35647 -3.78,-0.15058 -3.78,0.0575 -3.78,0.26637 -3.78,0.47833 -3.78,0.69391 -3.78,0.92098 -3.78,1.1545 -3.78,1.4041 -3.78,1.67155 -3.2777,1.68388 -3.2023,1.87344 -3.24,2.15275 -3.25274,2.45381 -3.15513,2.7 -2.77213,2.67823 -2.51456,2.72177 -2.34544,2.84348 -2.27219,3.09652 -2.09734,3.24 -1.84325,3.24 -1.85612,3.78 -1.56977,3.78 -1.30311,3.78 -1.05199,3.78 -0.81396,3.78 -0.58378,3.78 -0.36109,3.78 -0.14018,3.78 0.0777,3.78 0.31506,3.92294 0.50323,3.63706 0.74628,3.78 0.98362,3.78 1.22886,3.78 1.49185,3.78 1.52616,3.28853 1.69875,3.19147 2.08125,3.41548 2.16,3.11559 2.50273,3.18893 2.3855,2.7 2.67177,2.70428 2.99651,2.69572 2.94349,2.35106 3.24,2.29308 3.24,2.02046 3.63363,1.9754 2.84637,1.35496 3.78,1.5542 3.78,1.29514 3.78,1.05301 3.78,0.82237 3.78,0.60137 3.24,0.34272 v 0"
           style="fill:none;stroke:#c1cdd3;stroke-width:2"
           id="path1494" />
      </g>
      <g
         id="LineCollection_16">
        <path
           clip-path="url(#p97c0e64012)"
           d="m 205.74,333.76041 -5.94,-0.55177 -5.94,-0.77967 -5.94,-1.00986 -5.94,-1.24499 -5.94,-1.48524 -5.94,-1.73261 -5.62617,-1.87627 -5.74148,-2.16 -5.37235,-2.25539 -5.60363,-2.60461 -5.27556,-2.7 -5.32081,-2.9817 -4.86,-2.96334 -4.897,-3.23496 -4.823,-3.44828 -4.86,-3.75883 -4.32,-3.60166 -4.32,-3.87127 L 104.70703,287.28 100.44,282.83604 96.66,278.59811 92.673543,273.78 88.956727,268.92 85.520379,264.06 82.342912,259.2 79.38,254.29513 76.408225,248.94 l -2.73666,-5.4 -2.489945,-5.4 -2.255046,-5.4 -2.031546,-5.4 -1.986234,-5.94 -1.58842,-5.4 -1.516005,-5.94 -1.281109,-5.94 -1.050903,-5.94 -0.825575,-5.94 -0.604203,-5.94 -0.385289,-5.94 -0.167405,-5.94 0.04927,-5.94 0.265838,-5.94 L 58.32,156.29861 58.994391,150.66 59.94,144.61632 61.076654,138.78 l 1.387225,-5.94 1.625379,-5.94 1.790742,-5.69981 2.003486,-5.64019 2.142062,-5.4 2.370704,-5.4 L 75.06,99.257137 77.873445,93.96 l 3.135065,-5.4 3.42487,-5.4 3.347973,-4.86 3.620556,-4.86 3.917746,-4.86 L 99.36,63.944561 103.14,59.912467 107.4663,55.62 111.78,51.648012 116.1,47.947779 120.96,44.088284 125.85124,40.5 130.68,37.226844 135.81181,34.02 140.94,31.076368 l 5.4,-2.835458 5.4,-2.579347 5.4,-2.336901 5.4,-2.105044 5.4,-1.883191 5.94,-1.824241 5.94,-1.574332 5.94,-1.332023 5.94,-1.094874 5.94,-0.862292 5.94,-0.634345 5.94,-0.408084 5.94,-0.183912 5.94,0.04045 5.94,0.264924 5.94,0.490908 6.09834,0.74139 5.78166,0.92922 5.94,1.187923 5.4,1.290997 5.94,1.658367 5.4,1.731802 5.4,1.953605 5.4,2.185501 5.4,2.428719 4.86,2.405159 5.4,2.931341 4.8781,2.897366 5.00687,3.24 4.69503,3.302137 4.86697,3.717863 4.55561,3.78 4.21173,3.78 4.18569,4.061129 3.85219,4.038871 3.81058,4.32 3.67723,4.521556 3.48453,4.658444 2.99547,4.348041 3.05704,4.831959 2.80553,4.86 2.55021,4.86 2.38722,5.034506 2.21642,5.225498 2.02234,5.4 1.70124,5.20362 1.42858,5.05638 1.29046,5.4 1.06096,5.43145 0.82527,5.36855 0.62077,5.4 0.46093,5.94 0.27864,6.48 0.11116,8.1 -0.0278,27.54 -0.19654,7.56 -0.38924,6.48 -0.58452,5.94 -0.74594,5.4 -0.96411,5.4 -1.19529,5.4 -1.43464,5.4 -1.6846,5.4 -1.94309,5.4 -1.97827,4.86 -2.20475,4.86 -2.44797,4.87314 -2.7,4.87546 -2.93731,4.8314 -3.00269,4.52623 -3.3588,4.65377 -3.6612,4.6593 -3.38459,3.9807 -3.96683,4.32 -3.98858,4.01458 -4.32,4.02059 -4.32,3.71614 -4.32,3.44277 -4.86,3.57602 -4.86,3.28911 -4.86,3.02463 -4.86,2.77978 -4.86,2.55054 -5.4,2.5814 -5.4,2.3296 -5.4,2.09157 -5.83074,2.00327 -5.50926,1.65909 -5.94,1.54384 -5.4,1.18963 -5.94,1.07986 -5.94,0.84519 -5.94,0.61523 -5.94,0.38767 -5.94,0.16295 -5.94,-0.0616 -5.94,-0.28557 -1.08,-0.0759 v 0"
           style="fill:none;stroke:#e2d9e2;stroke-width:2"
           id="path1497" />
        <path
           clip-path="url(#p97c0e64012)"
           d="m 201.42,237.60002 3.78,0.0966 3.78,-0.11663 3.78,-0.32637 3.78,-0.54129 3.78,-0.75994 3.78,-0.98188 3.78,-1.21399 3.78,-1.45611 3.79443,-1.72044 3.22557,-1.67737 3.56514,-2.10263 3.24849,-2.16 2.92256,-2.16 3.29129,-2.7 3.17252,-2.89813 3.00595,-3.04187 2.93405,-3.27817 3.03766,-3.74183 3.17317,-4.32 3.24736,-4.86 4.3261,-7.02 3.49571,-5.68368 2.16,-3.06054 1.39618,-1.51578 0.76382,-0.61664 1.08,-0.48909 0.54,-0.075 1.08,0.18384 1.08,0.54043 1.62,1.21689 6.5646,5.71957 2.6154,1.91486 2.16,1.36392 2.7,1.43379 2.7,1.14152 2.7,0.86607 2.7,0.59836 2.7,0.33711 2.7,0.0818 2.7,-0.18302 2.16,-0.33552 2.7,-0.68216 2.16,-0.76641 2.16,-0.99097 2.16,-1.24576 2.16,-1.55817 1.62791,-1.43543 1.61209,-1.71782 1.18594,-1.52218 1.35286,-2.16 1.02145,-2.16 0.75975,-2.30791 0.41851,-2.01209 0.19098,-2.16 -0.0695,-2.19246 -0.31364,-2.12754 -0.58819,-2.16 -0.87038,-2.16 -1.17987,-2.16 -1.53904,-2.16 L 333.72,158.74962 331.99185,157.14 329.94,155.5848 328.0927,154.44 325.94508,153.36 324,152.57924 l -2.16,-0.66533 -2.7,-0.56378 -2.7,-0.28675 -2.7,-0.0232 -2.7,0.23654 -2.7,0.4946 -2.7,0.75481 -2.7,1.02998 -2.7,1.31556 -2.16,1.26685 -2.7,1.86014 -2.32628,1.8413 -4.25727,3.78 -2.05645,1.71087 -1.08,0.67497 -1.08,0.37385 -0.54,0.041 -1.08,-0.26063 -1.08,-0.70775 L 280.62737,164.16 279.18,162.2708 276.23783,157.68 267.84,144.27328 265.48352,140.94 262.44,136.98827 l -2.7,-3.19369 -2.88727,-3.11458 -3.33043,-3.24 -3.08798,-2.7 -3.44299,-2.7 -3.0763,-2.16 -3.44431,-2.16 -3.41072,-1.89177 -3.91923,-1.88823 -3.64077,-1.50318 -3.78,-1.31638 -3.78,-1.08043 -3.78,-0.85366 -3.87944,-0.64635 -3.68056,-0.40658 -3.78,-0.20607 -3.78,0.005 -3.78,0.21671 -3.78,0.43346 -3.78,0.65222 -3.94137,0.92533 -3.631,1.08 L 180.9,112.39424 177.24176,113.94 174.42,115.31399 171.05935,117.18 167.94,119.15206 164.67221,121.5 162,123.66057 l -2.975,2.69943 -2.63907,2.7 -2.48593,2.85922 -2.37537,3.08078 -2.19984,3.24 -1.9281,3.24 -1.68583,3.24 -1.53086,3.40831 -1.18527,3.07169 -1.21797,3.78 -0.9665,3.78 -0.72815,3.78 -0.49665,3.78 -0.26903,3.78 -0.0482,3.78 0.17429,3.78 0.41749,3.90171 0.61008,3.65829 0.86267,3.78 1.10861,3.78 1.36677,3.78 1.45187,3.36819 1.62,3.24443 1.77335,3.10738 2.10644,3.24 2.39862,3.24 2.36159,2.82146 2.7,2.86762 2.7,2.54909 3.05649,2.56183 2.90526,2.16 3.28447,2.16 3.17378,1.83452 3.24,1.63918 3.78,1.6409 3.78,1.36954 3.78,1.11945 3.78,0.88174 4.08781,0.69467 3.47219,0.39101 2.16,0.14901 v 0"
           style="fill:none;stroke:#e2d9e2;stroke-width:2"
           id="path1499" />
      </g>
    </g>
  </g>
</svg>
